<?xml version="1.0" encoding="iso-8859-1"?>
<!-- Generator: Adobe Illustrator 21.0.0, SVG Export Plug-In . SVG Version: 6.00 Build 0)  -->
<svg xmlns="http://www.w3.org/2000/svg" xmlns:xlink="http://www.w3.org/1999/xlink" version="1.1" id="Capa_1" x="0px" y="0px" viewBox="0 0 512 512" style="enable-background:new 0 0 512 512;" xml:space="preserve" width="512" height="512">
<g>
	<g>
		<g>
			<g>
				<g>
					<g>
						<g>
							<g>
								
									<path style="fill:none;stroke:#E7E8F7;stroke-width:15;stroke-linecap:round;stroke-linejoin:round;stroke-miterlimit:10;" d="          M324.487,48.125"/>
							</g>
						</g>
					</g>
				</g>
			</g>
			<g>
				<g>
					<polyline style="fill:#FEEC96;" points="95.098,212.956 56.242,87.431 56,87.122 56,48.485 95,48.485 95.188,48.485        322,176.122 322,316.122 96,316.122 96,213.122      "/>
				</g>
				<g>
					<polygon style="fill:#8ADFF8;" points="415.812,48.485 416,48.485 455,48.485 455,87.122 454.758,87.431 415.902,210.057        415.342,235.816 244.439,135.816      "/>
				</g>
				<g>
					<g>
						<polyline style="fill:#F0EEF0;" points="95.098,424.122 95.098,312.483 415.902,312.483 415.902,424.122       "/>
					</g>
					<g>
						<rect x="384.805" y="312.483" style="fill:#DFDDE0;" width="31.098" height="111.639"/>
					</g>
					<g>
						<path style="fill:#5D5E69;" d="M56.242,87.431L23.446,54.634c-10.755-10.755-10.755-28.191,0-38.946l0,0        c10.755-10.755,28.191-10.755,38.946,0l32.797,32.797L56.242,87.431z"/>
					</g>
					<g>
						<path style="fill:#484854;" d="M42.203,36.379l32.545,32.545l20.44-20.44L62.392,15.688        c-10.755-10.755-28.191-10.755-38.946,0h0c-3.834,3.834-6.294,8.519-7.394,13.446C25.12,26.876,35.114,29.29,42.203,36.379z"/>
					</g>
					<g>
						<path style="fill:#5D5E69;" d="M415.812,48.485l32.797-32.797c10.755-10.755,28.191-10.755,38.946,0l0,0        c10.755,10.755,10.755,28.191,0,38.946l-32.797,32.797L415.812,48.485z"/>
					</g>
					<g>
						<path style="fill:#484854;" d="M466.863,34.446l-32.545,32.545l20.44,20.44l32.797-32.797        c10.755-10.755,10.755-28.191,0-38.946v0c-3.834-3.834-8.519-6.294-13.446-7.394        C476.366,17.363,473.953,27.356,466.863,34.446z"/>
					</g>
					<g>
						<path style="fill:#BDBFCE;" d="M192.692,312.483H95.098V150.485c0-5.523,4.477-10,10-10h77.594c5.523,0,10,4.477,10,10        V312.483z"/>
					</g>
					<g>
						<path style="fill:#ABACBA;" d="M182.692,140.485h-31.098c5.523,0,10,4.477,10,10v161.998h31.098V150.485        C192.692,144.963,188.215,140.485,182.692,140.485z"/>
					</g>
					<g>
						<circle style="fill:#5D5E69;" cx="143.895" cy="195.08" r="20.775"/>
					</g>
					<g>
						<circle style="fill:#5D5E69;" cx="143.895" cy="264.652" r="20.775"/>
					</g>
					<g>
						<path style="fill:#BDBFCE;" d="M318.308,312.483V150.485c0-5.523,4.477-10,10-10h77.594c5.523,0,10,4.477,10,10v161.998        H318.308z"/>
					</g>
					<g>
						<path style="fill:#ABACBA;" d="M405.902,140.485h-31.308c5.523,0,10,4.477,10,10v161.998h31.308V150.485        C415.902,144.963,411.425,140.485,405.902,140.485z"/>
					</g>
					<g>
						<circle style="fill:#5D5E69;" cx="367.105" cy="195.08" r="20.775"/>
					</g>
					<g>
						<circle style="fill:#5D5E69;" cx="367.105" cy="264.652" r="20.775"/>
					</g>
				</g>
				<g>
					<g>
						<g>
							<g>
								<g>
									<g>
										<path style="fill:#5D5E69;" d="M7.5,420.625c0,23.161,18.543,41.937,41.417,41.937s41.417-18.776,41.417-41.937v1.446            c0-23.161-18.543-41.937-41.417-41.937S7.5,398.91,7.5,422.071"/>
									</g>
									<g>
										<path style="fill:#484854;" d="M90.333,420.625c0,23.161,18.543,41.937,41.417,41.937s41.417-18.776,41.417-41.937v1.446            c0-23.161-18.543-41.937-41.417-41.937s-41.417,18.776-41.417,41.937"/>
									</g>
									<g>
										<path style="fill:#F9B04D;" d="M173.167,420.625c0,23.161,18.543,41.937,41.417,41.937S256,443.786,256,420.625v1.446            c0-23.161-18.543-41.937-41.417-41.937s-41.417,18.776-41.417,41.937"/>
									</g>
									<g>
										<path style="fill:#484854;" d="M256,420.625c0,23.161,18.543,41.937,41.417,41.937c22.874,0,41.417-18.776,41.417-41.937            v1.446c0-23.161-18.543-41.937-41.417-41.937c-22.874,0-41.417,18.776-41.417,41.937"/>
									</g>
									<g>
										<path style="fill:#5D5E69;" d="M338.833,420.625c0,23.161,18.543,41.937,41.417,41.937            c22.874,0,41.417-18.776,41.417-41.937v1.446c0-23.161-18.543-41.937-41.417-41.937            c-22.874,0-41.417,18.776-41.417,41.937"/>
									</g>
									<g>
										<path style="fill:#BC6C59;" d="M421.667,420.625c0,23.161,18.543,41.937,41.417,41.937            c22.874,0,41.417-18.776,41.417-41.937v1.446c0-23.161-18.543-41.937-41.417-41.937            c-22.874,0-41.417,18.776-41.417,41.937"/>
									</g>
									<g>
										<path style="fill:#F9B04D;" d="M49.333,462.197c0,23.161,18.543,41.937,41.417,41.937s41.417-18.776,41.417-41.937v1.446            c0-23.161-18.543-41.937-41.417-41.937s-41.417,18.776-41.417,41.937"/>
									</g>
									<g>
										<path style="fill:#BC6C59;" d="M132.167,462.197c0,23.161,18.543,41.937,41.417,41.937S215,485.358,215,462.197v1.446            c0-23.161-18.543-41.937-41.417-41.937s-41.417,18.776-41.417,41.937"/>
									</g>
									<g>
										<path style="fill:#5D5E69;" d="M215,462.197c0,23.161,18.543,41.937,41.417,41.937c22.874,0,41.417-18.776,41.417-41.937            v1.446c0-23.161-18.543-41.937-41.417-41.937c-22.874,0-41.417,18.776-41.417,41.937"/>
									</g>
									<g>
										<path style="fill:#BC6C59;" d="M297.833,462.197c0,23.161,18.543,41.937,41.417,41.937            c22.874,0,41.417-18.776,41.417-41.937v1.446c0-23.161-18.543-41.937-41.417-41.937            c-22.874,0-41.417,18.776-41.417,41.937"/>
									</g>
									<g>
										<path style="fill:#F9B04D;" d="M380.667,462.197c0,23.161,18.543,41.937,41.417,41.937            c22.874,0,41.417-18.776,41.417-41.937v1.446c0-23.161-18.543-41.937-41.417-41.937            c-22.874,0-41.417,18.776-41.417,41.937"/>
									</g>
									<g>
										<path style="fill:#BC6C59;" d="M90.285,505.122c0.018-0.399,0.023-0.801,0.03-1.202            c-0.383-22.826-18.764-41.214-41.398-41.214c-22.634,0-41.016,18.388-41.399,41.214c0.007,0.402,0.012,0.803,0.03,1.202            H90.285z"/>
									</g>
									<g>
										<path style="fill:#5D5E69;" d="M173.119,505.122c0.018-0.399,0.023-0.801,0.03-1.202            c-0.383-22.826-18.764-41.214-41.399-41.214s-41.016,18.388-41.399,41.214c0.007,0.402,0.012,0.803,0.03,1.202H173.119z"/>
									</g>
									<g>
										<path style="fill:#484854;" d="M255.952,505.122c0.018-0.399,0.023-0.801,0.03-1.202            c-0.383-22.826-18.764-41.214-41.399-41.214c-22.634,0-41.016,18.388-41.398,41.214c0.007,0.402,0.012,0.803,0.03,1.202            H255.952z"/>
									</g>
									<g>
										<path style="fill:#484854;" d="M338.785,505.122c0.018-0.399,0.023-0.801,0.03-1.202            c-0.383-22.826-18.764-41.214-41.398-41.214c-22.635,0-41.016,18.388-41.399,41.214c0.007,0.402,0.012,0.803,0.03,1.202            H338.785z"/>
									</g>
									<g>
										<path style="fill:#5D5E69;" d="M421.619,505.122c0.018-0.399,0.023-0.801,0.03-1.202            c-0.383-22.826-18.764-41.214-41.399-41.214s-41.016,18.388-41.399,41.214c0.007,0.402,0.012,0.803,0.03,1.202H421.619z"/>
									</g>
									<g>
										<path style="fill:#BC6C59;" d="M504.452,505.122c0.018-0.399,0.023-0.801,0.03-1.202            c-0.383-22.826-18.764-41.214-41.399-41.214c-22.634,0-41.016,18.388-41.398,41.214c0.007,0.402,0.012,0.803,0.03,1.202            H504.452z"/>
									</g>
								</g>
							</g>
						</g>
					</g>
				</g>
			</g>
		</g>
	</g>
	<g>
		<path d="M367.105,223.355c0.084,0,0.166-0.006,0.25-0.006c0.084,0.001,0.166,0.006,0.25,0.006    c15.591,0,28.274-12.685,28.274-28.275s-12.684-28.274-28.274-28.274c-0.084,0-0.166,0.006-0.25,0.006    c-0.084-0.001-0.166-0.006-0.25-0.006c-15.591,0-28.275,12.684-28.275,28.274S351.515,223.355,367.105,223.355z M380.38,195.08    c0,7.236-5.821,13.128-13.024,13.263c-7.204-0.135-13.025-6.027-13.025-13.263c0-7.235,5.821-13.127,13.025-13.262    C374.559,181.953,380.38,187.845,380.38,195.08z"/>
		<path d="M367.355,292.921c0.084,0.001,0.166,0.006,0.25,0.006c15.591,0,28.274-12.685,28.274-28.275s-12.684-28.275-28.274-28.275    c-0.084,0-0.166,0.006-0.25,0.006c-0.084-0.001-0.166-0.006-0.25-0.006c-15.591,0-28.275,12.685-28.275,28.275    s12.685,28.275,28.275,28.275C367.189,292.928,367.272,292.922,367.355,292.921z M380.38,264.652    c0,7.236-5.821,13.128-13.024,13.263c-7.204-0.135-13.025-6.027-13.025-13.263s5.821-13.128,13.025-13.263    C374.559,251.525,380.38,257.416,380.38,264.652z"/>
		<path d="M511.975,422.556c0.011-0.168,0.025-0.335,0.025-0.506c0-0.084-0.006-0.166-0.006-0.25c0-0.084,0.006-0.166,0.006-0.25    c0-0.171-0.014-0.338-0.025-0.506c-0.205-10.05-3.448-19.361-8.854-27.055V34.457c0-18.933-15.402-34.335-34.335-34.335H41.955    C23.166,0.122,7.88,15.408,7.88,34.197V395.47c-4.805,7.396-7.663,16.161-7.854,25.575C0.014,421.213,0,421.38,0,421.551    c0,0.084,0.006,0.166,0.006,0.25c0,0.084-0.006,0.166-0.006,0.25c0,0.171,0.014,0.338,0.025,0.506    c0.348,17.088,9.488,32.048,23.08,40.53C9.246,471.734,0,487.115,0,504.622c0,9.675,15,9.675,15,0    c0-43.656,67.833-43.823,67.833,0c0,9.675,15,9.675,15,0c0-43.656,67.834-43.823,67.834,0c0,9.675,15,9.675,15,0    c0-43.656,67.833-43.823,67.833,0c0,9.675,15,9.675,15,0c0-43.656,67.833-43.823,67.833,0c0,9.675,15,9.675,15,0    c0-43.656,67.834-43.823,67.834,0c0,9.675,15,9.675,15,0c0-43.656,67.833-43.823,67.833,0c0,9.675,15,9.675,15,0    c0-17.507-9.246-32.888-23.105-41.536C502.487,454.605,511.627,439.644,511.975,422.556z M429.871,415.163    c3.191-15.417,16.87-27.041,33.212-27.041c10.164,0,19.292,4.502,25.513,11.61c0.53,1.426,1.477,2.646,2.699,3.511    c3.557,5.322,5.648,11.701,5.698,18.558c-0.118,16.127-11.537,29.608-26.714,32.902    C466.585,434.393,450.326,418.414,429.871,415.163z M380.75,437.491c-7.362-11.696-19.528-20.073-33.713-22.328    c3.191-15.417,16.87-27.041,33.213-27.041c16.404,0,30.123,11.711,33.247,27.214C399.727,417.811,387.944,426.062,380.75,437.491z     M297.917,437.491c-7.363-11.696-19.528-20.073-33.713-22.328c3.191-15.417,16.87-27.041,33.213-27.041    c16.404,0,30.122,11.711,33.246,27.214C316.894,417.811,305.111,426.062,297.917,437.491z M215.083,437.491    c-7.362-11.696-19.527-20.073-33.712-22.328c3.191-15.417,16.87-27.041,33.212-27.041c16.404,0,30.123,11.711,33.247,27.214    C234.06,417.811,222.277,426.062,215.083,437.491z M132.25,437.491c-7.362-11.696-19.528-20.073-33.713-22.328    c0.614-2.965,1.623-5.786,2.957-8.415c0.497-0.632,0.892-1.347,1.166-2.119c5.935-9.88,16.752-16.507,29.091-16.507    c16.404,0,30.123,11.711,33.247,27.214C151.227,417.811,139.444,426.062,132.25,437.491z M42.686,454.895    c-15.655-2.921-27.56-16.627-27.68-33.094c0.135-18.593,15.292-33.679,33.911-33.679c16.404,0,30.122,11.711,33.246,27.214    C62.101,418.942,46.255,434.816,42.686,454.895z M209.371,15.122l-24.895,25.862h-45.28l24.895-25.862H209.371z M281.81,15.122    l24.895,25.862h-30.429c-9.675,0-9.675,15,0,15H385.13l-136.917,69.911L124.254,55.984H238.59c9.675,0,9.675-15,0-15h-33.294    l24.895-25.862H281.81z M347.909,15.122l24.895,25.862h-45.28l-24.895-25.862H347.909z M463.083,373.122    c-0.277,0-0.55,0.016-0.825,0.021v-43.81l25.862,25.862v24.843C480.791,375.651,472.228,373.122,463.083,373.122z     M338.833,396.062c-8.665-13.767-23.985-22.94-41.416-22.94s-32.751,9.174-41.417,22.941    c-8.666-13.767-23.986-22.941-41.417-22.941s-32.751,9.174-41.416,22.94c-8.666-13.767-23.986-22.94-41.417-22.94    c-10.695,0-20.593,3.461-28.652,9.308v-62.447H337.65c9.675,0,9.675-15,0-15h-11.342V147.985h82.594v62.006    c0,0.021,0,0.043,0,0.065v94.927h-36.466c-9.675,0-9.675,15,0,15h35.966v62.091c-7.968-5.631-17.677-8.952-28.152-8.952    C362.819,373.122,347.499,382.296,338.833,396.062z M462.258,263.233l25.862,25.862v44.885l-25.862-25.862V263.233z     M462.258,242.019v-44.885l25.862,25.862v44.885L462.258,242.019z M488.12,201.781l-25.862-25.862v-44.885l25.862,25.862V201.781z     M454.758,76.824l-28.34-28.34l27.494-27.492c18.23-18.235,46.605,10.072,28.339,28.338L454.758,76.824z M446.611,89.891    l-22.708,71.668v-21.073c0-4.143-3.357-7.5-7.5-7.5h-97.594c-4.143,0-7.5,3.357-7.5,7.5v20.994l-47.421-26.745l150.646-76.921    L446.611,89.891z M311.309,178.7v126.283H200.691v-92.51c0-9.675-15-9.675-15,0v92.51h-82.594v-91.969c0-0.031,0-0.062,0-0.094    v-64.935h82.594v24.87c0,9.675,15,9.675,15,0v-32.37c0-4.143-3.357-7.5-7.5-7.5H95.598c-4.143,0-7.5,3.357-7.5,7.5v22.876    L65.127,89.153l31.519-31.519L311.309,178.7z M22.88,223.905l25.862-25.862v44.885L22.88,268.79V223.905z M56.242,76.824    L28.749,49.331C10.637,31.217,38.782,2.685,57.089,20.992l27.493,27.492L56.242,76.824z M48.742,176.829L22.88,202.691v-44.885    l25.862-25.862V176.829z M22.88,290.005l25.862-25.862v44.885L22.88,334.89V290.005z M63.742,312.141c0-0.003,0-0.007,0-0.01    v-66.089c0-0.003,0-0.007,0-0.01v-66.089c0-0.003,0-0.007,0-0.01V135.41l24.355,78.682l-0.5,178.06    c-6.012-7.764-14.297-13.679-23.855-16.727V312.141z M423.402,393.49l0.5-182.274l23.355-73.709v238.257    C437.586,379.083,429.276,385.348,423.402,393.49z M488.12,135.682l-25.862-25.862V90.538l25.862-25.863V135.682z M412.705,40.984    h-19.082l-24.895-25.862h69.839L412.705,40.984z M118.377,40.984H98.295L72.433,15.122h70.839L118.377,40.984z M48.742,90.538    v20.191L22.88,136.591V64.676L48.742,90.538z M22.88,356.104l25.862-25.862v42.884c-9.499,0.034-18.362,2.796-25.862,7.533    V356.104z M90.333,478.634c-7.184-11.413-18.944-19.657-32.688-22.145c3.23-15.366,16.882-26.938,33.188-26.938    c16.246,0,29.854,11.487,33.15,26.766C109.825,458.586,97.685,466.955,90.333,478.634z M173.167,478.634    c-7.184-11.413-18.944-19.657-32.689-22.145c3.23-15.366,16.882-26.938,33.189-26.938c16.245,0,29.853,11.487,33.149,26.766    C192.658,458.586,180.518,466.955,173.167,478.634z M256,478.634c-7.184-11.413-18.944-19.657-32.689-22.145    c3.23-15.366,16.882-26.938,33.189-26.938c16.246,0,29.854,11.487,33.15,26.766C275.492,458.586,263.351,466.955,256,478.634z     M338.833,478.634c-7.184-11.413-18.944-19.657-32.688-22.145c3.23-15.366,16.882-26.938,33.188-26.938    c16.246,0,29.854,11.487,33.15,26.766C358.325,458.586,346.185,466.955,338.833,478.634z M421.667,478.634    c-7.184-11.413-18.944-19.657-32.689-22.145c3.23-15.366,16.882-26.938,33.189-26.938c16.245,0,29.853,11.487,33.149,26.766    C441.158,458.586,429.018,466.955,421.667,478.634z"/>
		<path d="M144.395,166.806c-0.084,0-0.166,0.006-0.25,0.006c-0.084-0.001-0.166-0.006-0.25-0.006    c-15.591,0-28.274,12.684-28.274,28.274s12.684,28.275,28.274,28.275c0.084,0,0.166-0.006,0.25-0.006    c0.084,0.001,0.166,0.006,0.25,0.006c15.591,0,28.275-12.685,28.275-28.275S159.985,166.806,144.395,166.806z M131.12,195.08    c0-7.235,5.821-13.127,13.024-13.262c7.204,0.135,13.025,6.027,13.025,13.262c0,7.236-5.821,13.128-13.025,13.263    C136.941,208.208,131.12,202.316,131.12,195.08z"/>
		<path d="M144.395,236.377c-0.084,0-0.166,0.006-0.25,0.006c-0.084-0.001-0.166-0.006-0.25-0.006    c-15.591,0-28.274,12.685-28.274,28.275s12.684,28.275,28.274,28.275c0.084,0,0.166-0.006,0.25-0.006    c0.084,0.001,0.166,0.006,0.25,0.006c15.591,0,28.275-12.685,28.275-28.275S159.985,236.377,144.395,236.377z M131.12,264.652    c0-7.236,5.821-13.128,13.024-13.263c7.204,0.135,13.025,6.027,13.025,13.263s-5.821,13.128-13.025,13.263    C136.941,277.78,131.12,271.888,131.12,264.652z"/>
	</g>
</g>















</svg>
