<svg height="512" viewBox="0 0 64 64" width="512" xmlns="http://www.w3.org/2000/svg"><g id="Color"><path d="m57.537 26.105a22.93 22.93 0 0 1 .715 6.1 26.127 26.127 0 1 1 -51.552-6.022s1.74-10.092 13.591-17.283a22.744 22.744 0 0 1 11.834-2.825 26.018 26.018 0 0 1 11.784 2.8 29.194 29.194 0 0 1 13.628 17.23z" fill="#01baef"/><path d="m13.422 29.983 3.478 3.483.676 2.971 13.217 13.868 1.458 1.458a2.516 2.516 0 0 0 3.528.031 2.516 2.516 0 0 0 .031-3.589l.754.754a2.394 2.394 0 0 0 3.386 0 2.4 2.4 0 0 0 0-3.385l.085.081a2.393 2.393 0 0 0 3.3-.081 2.393 2.393 0 0 0 0-3.385l.068.065a2.394 2.394 0 0 0 3.317-.065 2.393 2.393 0 0 0 0-3.385l-4.514-4.514-6.1-6.1-1.466-1.481a3.575 3.575 0 0 0 -5.062-.016l-3.778 3.765a2.393 2.393 0 0 1 -3.385 0 2.393 2.393 0 0 1 0-3.385l6.085-6.079 6.825-.966-8.833-3.111z" fill="#ffc088"/><path d="m17.06 5.672 10.336 10.336-15.45 15.45-10.286-10.336z" fill="#32363a"/><path d="m17.06 5.672 10.336 10.336-2.658 2.659-10.307-10.316z" fill="#232628"/><path d="m46.983 5.804-9.833 9.833 15.451 15.45 9.739-9.833z" fill="#32363a"/><path d="m59.416 18.237-9.833 9.833 3.018 3.017 9.777-9.795z" fill="#232628"/><g fill="#ffc088"><rect height="4.787" rx="2.394" transform="matrix(.707 -.707 .707 .707 -23.13 28.01)" width="8.777" x="17.858" y="39.532"/><path d="m18.579 35.438-2.725 2.725a2.484 2.484 0 0 0 -.185 3.387 2.393 2.393 0 0 0 3.474.094l2.821-2.821a2.393 2.393 0 0 0 0-3.385 2.393 2.393 0 0 0 -3.385 0z"/><path d="m25.349 42.208-2.725 2.725a2.485 2.485 0 0 0 -.184 3.388 2.394 2.394 0 0 0 3.474.093l2.821-2.821a2.4 2.4 0 0 0 0-3.385 2.394 2.394 0 0 0 -3.386 0z"/><path d="m28.735 45.593-2.726 2.725a2.486 2.486 0 0 0 -.184 3.388 2.394 2.394 0 0 0 3.475.094l2.821-2.821a2.4 2.4 0 0 0 0-3.385 2.393 2.393 0 0 0 -3.386-.001z"/></g><path d="m44.041 10.423h5.696v21.85h-5.696z" fill="#e0e0e0" transform="matrix(.707 -.707 .707 .707 -1.362 39.409)"/><path d="m50.257 25.431h5.696v4.265h-5.696z" fill="#b2b2b2" transform="matrix(.707 -.707 .707 .707 -3.936 45.624)"/><path d="m6.604 18.561h21.85v6.06h-21.85z" fill="#e0e0e0" transform="matrix(.707 -.707 .707 .707 -10.133 18.718)"/><path d="m22.046 12.165h3.759v6.06h-3.759z" fill="#b2b2b2" transform="matrix(.707 -.707 .707 .707 -3.737 21.368)"/><path d="m38.431 16.917-3.111 3.111-6.825.966-6.079 6.079a2.393 2.393 0 0 0 0 3.385 2.393 2.393 0 0 0 3.385 0l3.777-3.765a3.575 3.575 0 0 1 5.062.016l1.469 1.484 6.1 6.1 3.6 3.6.972-.972.868-3.82 3.483-3.482z" fill="#e29a60"/></g><g id="Line" fill="#1c232d"><circle cx="56.626" cy="21.027" r="1.286"/><circle cx="7.659" cy="21.073" r="1.286"/><path d="m11.944 32.44a1 1 0 0 1 -.707-.295l-10.288-10.337a1 1 0 0 1 0-1.411l15.4-15.45a1 1 0 0 1 .707-.294 1 1 0 0 1 .707.293l10.337 10.337a1 1 0 0 1 0 1.414l-15.45 15.45a1 1 0 0 1 -.706.293zm-8.875-11.34 8.877 8.92 14.034-14.03-8.922-8.922z"/><path d="m41.64 47.255a3.385 3.385 0 0 1 -2.4-.992l-3.64-3.641 1.414-1.414 3.641 3.641a1.394 1.394 0 0 0 1.971-1.971l-3.579-3.578 1.414-1.414 3.578 3.579a3.391 3.391 0 0 1 -2.4 5.791z"/><path d="m38.255 50.64a3.382 3.382 0 0 1 -2.4-.992l-3.744-3.743 1.414-1.414 3.744 3.743a1.394 1.394 0 0 0 1.971-1.971l-3.64-3.641 1.414-1.414 3.641 3.641a3.392 3.392 0 0 1 -2.4 5.791z"/><path d="m16.6 36.64-.611-2.689-3.279-3.279 1.414-1.415 3.483 3.484a1.01 1.01 0 0 1 .268.485l.675 2.971z"/><path d="m34.028 53.475a3.506 3.506 0 0 1 -2.487-1.023l-1.458-1.458 1.417-1.414 1.458 1.458a1.524 1.524 0 0 0 2.127.018 1.518 1.518 0 0 0 .018-2.163l-2.989-2.988 1.414-1.414 2.99 2.988a3.51 3.51 0 0 1 -2.487 6z"/><path d="m52.6 32.069a1 1 0 0 1 -.707-.293l-15.45-15.45a1 1 0 0 1 0-1.414l9.833-9.833a1 1 0 0 1 .707-.293 1.116 1.116 0 0 1 .709.3l15.357 15.45a1 1 0 0 1 0 1.409l-9.739 9.833a1 1 0 0 1 -.709.3zm-14.038-16.45 14.038 14.032 8.334-8.414-13.955-14.037z"/><path d="m45.025 43.87a3.387 3.387 0 0 1 -2.4-.992l-3.578-3.578 1.414-1.414 3.578 3.579a1.394 1.394 0 0 0 1.972-1.971l-12.084-12.094a2.556 2.556 0 0 0 -1.821-.763h-.006a2.557 2.557 0 0 0 -1.816.75l-3.784 3.761a3.393 3.393 0 0 1 -4.8-4.8l6.08-6.079a1 1 0 0 1 .566-.283l6.5-.92 2.874-2.874 1.414 1.414-3.111 3.11a1 1 0 0 1 -.567.284l-6.494.92-5.842 5.842a1.394 1.394 0 1 0 1.971 1.971l3.779-3.767a4.539 4.539 0 0 1 3.23-1.334h.015a4.549 4.549 0 0 1 3.235 1.355l12.075 12.092a3.392 3.392 0 0 1 -2.4 5.791z"/><path d="m46.507 38.575-1.415-1.414.769-.769.8-3.538a1 1 0 0 1 .269-.485l3.482-3.483 1.418 1.414-3.279 3.279-.8 3.538a1.01 1.01 0 0 1 -.268.485z"/><path d="m20.833 46.713a3.395 3.395 0 0 1 -2.4-5.794l2.822-2.819a3.394 3.394 0 0 1 4.8 4.8l-2.821 2.82a3.369 3.369 0 0 1 -2.401.993zm2.822-7.613a1.392 1.392 0 0 0 -.986.407l-2.821 2.822a1.4 1.4 0 0 0 0 1.97 1.423 1.423 0 0 0 1.97 0l2.822-2.82a1.393 1.393 0 0 0 -.985-2.379z"/><path d="m17.447 43.327h-.088a3.372 3.372 0 0 1 -2.435-1.127 3.466 3.466 0 0 1 .22-4.764l2.726-2.724a3.393 3.393 0 1 1 4.8 4.8l-2.821 2.822a3.413 3.413 0 0 1 -2.402.993zm2.822-7.608a1.386 1.386 0 0 0 -.985.408l-2.725 2.724a1.486 1.486 0 0 0 -.149 2.012 1.386 1.386 0 0 0 1 .463 1.285 1.285 0 0 0 1.023-.407l2.822-2.819a1.393 1.393 0 0 0 -.986-2.378z"/><path d="m24.217 50.1h-.088a3.366 3.366 0 0 1 -2.435-1.125 3.463 3.463 0 0 1 .22-4.763l2.726-2.725a3.393 3.393 0 1 1 4.8 4.8l-2.822 2.813a3.406 3.406 0 0 1 -2.401 1zm2.822-7.607a1.393 1.393 0 0 0 -.985.407l-2.725 2.725a1.486 1.486 0 0 0 -.149 2.011 1.38 1.38 0 0 0 1 .463 1.312 1.312 0 0 0 1.022-.407l2.821-2.821a1.393 1.393 0 0 0 -.986-2.378z"/><path d="m27.6 53.482h-.087a3.367 3.367 0 0 1 -2.435-1.124 3.465 3.465 0 0 1 .221-4.764l2.725-2.725a3.394 3.394 0 0 1 4.8 4.8l-2.824 2.819a3.408 3.408 0 0 1 -2.4.994zm1.838-7.2-2.725 2.725a1.486 1.486 0 0 0 -.148 2.012 1.387 1.387 0 0 0 1 .463 1.472 1.472 0 0 0 1.023-.408l2.821-2.82a1.394 1.394 0 0 0 -1.971-1.972z"/><path d="m29.901 13.772h2v9.364h-2z" transform="matrix(.332 -.943 .943 .332 3.231 41.471)"/><path d="m52.6 32.069a1 1 0 0 1 -.707-.293l-15.45-15.45a1 1 0 0 1 0-1.414l4.028-4.029a1.029 1.029 0 0 1 1.414 0l15.45 15.451a1 1 0 0 1 0 1.414l-4.028 4.028a1 1 0 0 1 -.707.293zm-14.038-16.45 14.038 14.036 2.614-2.614-14.038-14.036z"/><path d="m11.944 32.44a1 1 0 0 1 -.707-.293l-4.285-4.285a1 1 0 0 1 0-1.414l15.448-15.448a1 1 0 0 1 1.414 0l4.286 4.283a1 1 0 0 1 0 1.414l-15.45 15.45a1 1 0 0 1 -.706.293zm-2.871-5.285 2.871 2.871 14.036-14.036-2.871-2.871z"/><path d="m20.742 9.776-.907-1.783a27.183 27.183 0 0 1 24.523-.027l-.9 1.786a25.175 25.175 0 0 0 -22.713.024z"/><path d="m32.123 59.31a27.147 27.147 0 0 1 -26.403-33.375l1.946.459a25.129 25.129 0 1 0 49.583 5.789 25.276 25.276 0 0 0 -.687-5.864l1.945-.465a27.152 27.152 0 0 1 -26.384 33.456z"/></g></svg>