<svg id="Capa_1" enable-background="new 0 0 511.996 511.996" height="512" viewBox="0 0 511.996 511.996" width="512" xmlns="http://www.w3.org/2000/svg"><g><g><g><g><path d="m463.439 485.416h-208.55c-18.191 0-32.937-14.746-32.937-32.937v-9.901c0-8.674 7.032-15.706 15.706-15.706h243.012c8.674 0 15.706 7.032 15.706 15.706v9.901c0 18.191-14.746 32.937-32.937 32.937z" fill="#f59705"/><path d="m477.953 426.872c-251.643.028-240.356-.069-241.815.077-7.961.765-14.186 7.468-14.186 15.629v9.901c0 18.191 14.746 32.937 32.937 32.937h15.77l1.292-11.626c1.228-11.054 10.456-19.949 22.313-19.949 15.531 0 15.531 8 31.062 8s15.531-8 31.062-8c15.532 0 15.532 8 31.064 8 15.531 0 15.531-8 31.062-8 15.533 0 15.533 8 31.067 8 9.577 0 13.25-3.041 18.299-5.373 7.062-3.262 12.115-9.94 12.706-17.696.329-4.345-.678-8.424-2.633-11.9z" fill="#ef7f02"/><path d="m244.468 436.265c5.283 2.354 8.884 5.575 18.738 5.575 15.529 0 15.529-8 31.058-8 15.531 0 15.531 8 31.062 8s15.531-8 31.062-8c15.532 0 15.532 8 31.064 8 15.531 0 15.531-8 31.062-8 15.533 0 15.533 8 31.067 8 9.857 0 13.459-3.222 18.745-5.576 7.526-3.352 12.322-10.882 12.322-19.121 0-11.599-9.403-21.001-21.001-21.001h-206.497c-11.599 0-21.001 9.403-21.001 21.001.03.101-.287 13.505 12.319 19.122z" fill="#80d261"/><path d="m459.146 396.142h-205.996c-15.122 0-25.114 15.446-19.345 29.169 2.01 4.787 5.748 8.764 10.663 10.954 5.283 2.354 8.884 5.575 18.738 5.575 5.836 0 9.478-1.13 12.576-2.54l.851-7.658c.98-8.824 8.439-15.5 17.317-15.5h165.695c7.981 0 14.921 4.452 18.475 11.008 2.115-3.923 3.001-8.541 2.278-13.246-1.588-10.326-10.804-17.762-21.252-17.762z" fill="#68ca44"/><path d="m465.116 403.655h-217.436c-8.578 0-15.531-6.954-15.531-15.531 0-8.578 6.954-15.531 15.531-15.531h217.436c8.578 0 15.531 6.953 15.531 15.531 0 8.577-6.954 15.531-15.531 15.531z" fill="#ca2e43"/><path d="m465.116 372.592h-216.991c-7.826 0-14.745 5.608-15.825 13.359-1.305 9.364 5.999 17.703 15.38 17.703h32.062l.42-3.783c.46-4.144 3.963-7.28 8.133-7.28h176.82c4.766 0 9.026 2.152 11.875 5.531 8.446-10.017 1.352-25.53-11.874-25.53z" fill="#ac2638"/><path d="m359.719 372.592 36.458-12.779 41.197 12.779-38.827 30.624z" fill="#ffe177"/><path d="m379.719 372.592 27.068-9.487-10.61-3.292-36.458 12.779 38.828 30.624 10-7.887z" fill="#ffd15b"/><path d="m380.976 255.998h-42.515c-58.27 0-106.557 42.746-115.213 98.59-1.467 9.466 5.887 18.004 15.466 18.004h242.009c9.579 0 16.933-8.538 15.466-18.004-8.656-55.844-56.942-98.59-115.213-98.59z" fill="#f59705"/><path d="m496.189 354.589c-8.656-55.845-56.943-98.59-115.213-98.59-35.651.902-50.805-2.496-75.349 4.695-12.706 3.722-25.177 9.749-36.618 18.247-.033.025-.066.049-.1.074-24.603 18.316-40.997 45.487-45.661 75.575-1.451 9.364 5.838 18.004 15.466 18.004h54.476l4.794-43.134c2.769-24.91 23.919-43.708 48.982-43.498 9.794.082 20.616.443 34.01.038 52.183 0 96.353 34.283 111.23 81.553 3.099-3.355 4.748-8.027 3.983-12.964z" fill="#ef7f02"/></g><path d="m139.821 7.5h31.062v88.214h-31.062z" fill="#ffe177"/><path d="m139.821 7.5h20v88.214h-20z" fill="#ffd15b"/><path d="m155.352 85.156c-68.621 0-124.249 55.628-124.249 124.249v15.531l8.074 72.663 106.694 62.215 124.547-52.253 9.183-82.625v-15.531c0-68.621-55.628-124.249-124.249-124.249z" fill="#eaf6ff"/><path d="m155.352 85.156c-68.621 0-124.249 55.628-124.249 124.249v15.531l8.074 72.663 106.694 62.215 124.547-52.253 9.183-82.625v-15.531c0-68.621-55.628-124.249-124.249-124.249z" fill="#eaf6ff"/><path d="m70.16 306.448-9.057-81.512v-15.531c0-63.543 47.703-115.938 109.249-123.345-4.918-.592-9.922-.904-15-.904-68.621 0-124.249 55.628-124.249 124.249v15.531l8.074 72.663 45.22 26.369z" fill="#d8ecfe"/><path d="m139.821 209.405h31.062v113.102h-31.062z" fill="#ffe177"/><path d="m139.821 209.405h20v113.102h-20z" fill="#ffd15b"/><path d="m39.177 297.599c22.362.307 22.727 9.993 45.809 9.993 23.454 0 23.454-10 46.907-10s23.453 10 46.906 10c23.456 0 23.456-10 46.912-10 22.697 0 23.432 9.363 44.707 9.969l-21.879 196.935h-186.374z" fill="#ea433f"/><g><g><g><path d="m39.177 297.599 22.989 206.897h30l-22.082-198.731c-10.067-2.822-14.741-7.944-30.907-8.166z" fill="#e32928"/></g></g></g><circle cx="186.414" cy="372.592" fill="#eaf6ff" r="15.531"/><circle cx="113.981" cy="456.144" fill="#eaf6ff" r="15.531"/><path d="m279.601 224.936h-248.498c-8.578 0-15.531-6.954-15.531-15.531 0-8.578 6.954-15.531 15.531-15.531h248.498c8.578 0 15.531 6.954 15.531 15.531 0 8.577-6.953 15.531-15.531 15.531z" fill="#c4e2ff"/><path d="m45.572 209.405c0-8.578 6.954-15.531 15.531-15.531h-30c-8.578 0-15.531 6.953-15.531 15.531s6.954 15.531 15.531 15.531h30c-8.578 0-15.531-6.954-15.531-15.531z" fill="#b3dafe"/></g></g><g><path d="m487.927 420.541c.814-6.818-.82-13.341-4.282-18.759 4.907-6.639 5.759-15.157 2.77-22.407 11.535-2.923 19.014-14.131 17.185-25.936-9.253-59.692-60.888-104.941-122.625-104.941-4.142 0-7.5 3.358-7.5 7.5s3.358 7.5 7.5 7.5c54.587 0 99.716 40.081 107.801 92.239.764 4.93-3.066 9.355-8.055 9.355h-209.149c.019-.169 6.569-59.123 9.474-85.265 32.186-19.965 62.115-15.744 67.303-16.329 4.142 0 7.5-3.358 7.5-7.5s-3.358-7.5-7.5-7.5c-5.623.523-32.975-3.101-65.269 13.03l3.348-30.126c22.262-6.924 21.214-38.712-1.23-44.338-3.455-20.18-11.686-39.498-23.909-56-2.465-3.328-7.163-4.028-10.491-1.563-3.329 2.465-4.028 7.162-1.563 10.491 10.176 13.739 17.226 29.679 20.58 46.381h-228.94c17.103-85.621 119.146-122.339 187.01-68.458 3.245 2.575 7.962 2.034 10.538-1.21 2.575-3.244 2.034-7.962-1.21-10.538-17.387-13.804-37.411-22.785-58.829-26.525v-72.142c0-4.142-3.358-7.5-7.5-7.5h-31.062c-4.142 0-7.5 3.358-7.5 7.5v72.186c-54.01 9.583-97.422 52.252-106.83 107.382-22.463 5.645-23.43 37.426-1.216 44.335l7.447 67.024 8.061 72.548c.458 4.117 4.164 7.081 8.282 6.626 4.117-.458 7.083-4.166 6.626-8.282l-7.05-63.448c11.844 2.194 16.703 9.221 37.344 9.221 24.982 0 25.837-10 46.907-10 20.77 0 22.252 10 46.906 10 24.985 0 25.84-10 46.913-10 18.303 0 19.928 6.777 36.405 9.269-2.392 21.534-18.111 163.021-20.29 182.636h-172.949l-10.555-94.991c-.458-4.117-4.164-7.086-8.282-6.626-4.117.458-7.083 4.166-6.626 8.282l11.296 101.663c.422 3.798 3.632 6.672 7.454 6.672h186.374c3.822 0 7.032-2.874 7.454-6.672l1.379-12.408h206.067c22.297 0 40.438-18.14 40.438-40.437v-9.901c-.001-10.262-6.698-18.984-15.95-22.038zm-340.606-405.541h16.062v62.896c-5.698-.337-10.828-.306-16.062.012zm317.953 414.414c-5.778 2.573-7.833 4.927-15.694 4.927-12.716 0-13.728-8-31.067-8-17.065 0-18.662 8-31.062 8-12.714 0-13.726-8-31.063-8-17.062 0-18.662 8-31.062 8-12.714 0-13.725-8-31.062-8-16.751 0-18.715 7.779-30.383 7.99l2.575-23.176c210.725-.311 199.076.758 204.837-.848 4.015 6.802 1.283 15.853-6.019 19.107zm-25.298-49.322h25.14c4.428 0 8.031 3.603 8.031 8.031s-3.603 8.031-8.031 8.031h-45.505zm-41.429 13.572-17.208-13.572h34.416zm-41.43-13.572 20.366 16.062h-109.362l1.784-16.062zm-326.014-178.718c1.681.001 247.058 0 248.498 0 4.428 0 8.031 3.603 8.031 8.031s-3.603 8.031-8.031 8.031c-76.966 0-123.853 0-248.498 0-4.428 0-8.031-3.603-8.031-8.031s3.603-8.031 8.031-8.031zm53.883 98.717c-19.292 0-20.336-7.619-39.053-9.606l-6.45-58.049h92.838v57.661c-25.367-.127-26.16 9.994-47.335 9.994zm62.335-8.288v-59.367h16.062v65.3c-4.824-1.703-9.344-4.267-16.062-5.933zm78.39-1.712c-25.171 0-25.795 10.116-47.328 9.995v-67.65h92.838l-7.446 66.998c-12.517-2.083-17.014-9.343-38.064-9.343zm263.165 162.388c0 14.026-11.411 25.437-25.438 25.437h-204.4l3.175-28.576c1.084-.184 8.292 1.177 19.957-4.833 3.569-1.838 6.148-3.167 12.094-3.167 12.714 0 13.725 8 31.062 8 17.073 0 18.647-8 31.062-8 12.714 0 13.726 8 31.063 8 17.065 0 18.662-8 31.062-8 12.715 0 13.729 8 31.067 8 11.845 0 17.015-4.095 21.797-6.225 4.364-1.944 8.059-4.931 10.866-8.589 3.775.736 6.633 4.064 6.633 8.051z"/><path d="m209.445 372.592c0-12.699-10.332-23.031-23.031-23.031-12.7 0-23.031 10.332-23.031 23.031 0 12.7 10.332 23.031 23.031 23.031 12.7.001 23.031-10.331 23.031-23.031zm-23.031 8.032c-4.428 0-8.031-3.603-8.031-8.031s3.603-8.031 8.031-8.031 8.031 3.603 8.031 8.031-3.602 8.031-8.031 8.031z"/><path d="m113.981 479.175c12.699 0 23.031-10.332 23.031-23.031s-10.332-23.031-23.031-23.031c-12.7 0-23.031 10.332-23.031 23.031s10.332 23.031 23.031 23.031zm0-31.062c4.428 0 8.031 3.603 8.031 8.031s-3.603 8.031-8.031 8.031-8.031-3.603-8.031-8.031 3.603-8.031 8.031-8.031z"/><path d="m104.384 372.218c4.103 0 7.5-3.364 7.5-7.5 0-4.026-3.257-7.502-7.505-7.502-4.119 0-7.495 3.331-7.495 7.502 0 4.163 3.397 7.5 7.5 7.5z"/><circle cx="338.574" cy="302.588" r="7.5"/><path d="m411.284 328.048c4.284 0 7.5-3.5 7.5-7.49 0-4.249-3.46-7.502-7.528-7.502-4.075 0-7.472 3.351-7.472 7.502 0 4.178 3.404 7.49 7.5 7.49z"/><path d="m185.344 427.915c-4.112 0-7.5 3.334-7.5 7.492 0 4.25 3.482 7.51 7.5 7.51 4.086 0 7.5-3.317 7.5-7.51 0-4.154-3.388-7.492-7.5-7.492z"/></g></g></svg>