<svg id="Capa_1" enable-background="new 0 0 512 512" height="512" viewBox="0 0 512 512" width="512" xmlns="http://www.w3.org/2000/svg"><g><g><g><g><g><g><g><circle cx="256" cy="256" fill="#bcdefa" r="256"/></g></g></g></g></g></g><path d="m512 256c0-8.747-.439-17.392-1.296-25.913l-87.248-87.248-38.598 53.307-84.389-84.389-211.926 257.404 141.543 141.543c8.522.857 17.167 1.296 25.914 1.296 141.385 0 256-114.615 256-256z" fill="#92cbf7"/><g><path d="m314.642 142.839-14.173-31.083h-88.938l-14.173 31.083h-108.815v226.322h334.914v-226.322z" fill="#636978"/></g><g><path d="m423.457 142.839h-108.815l-14.173-31.083h-44.348v257.405h167.336z" fill="#414952"/></g><g><path d="m88.543 201.756h334.913v108.488h-334.913z" fill="#414952"/></g><g><path d="m256.121 201.756h167.336v108.488h-167.336z" fill="#23272b"/></g><g><circle cx="305.882" cy="256" fill="#fff" r="94.977"/></g><g><path d="m400.859 256c0-52.375-42.394-94.845-94.739-94.974v189.948c52.345-.129 94.739-42.599 94.739-94.974z" fill="#e9edf5"/></g><g><circle cx="305.882" cy="256" fill="#414952" r="61.823"/></g><g><path d="m367.705 256c0-34.064-27.551-61.688-61.584-61.816v123.633c34.033-.129 61.584-27.753 61.584-61.817z" fill="#23272b"/></g><g><path d="m107.987 161.023h75.584v25.162h-75.584z" fill="#ffce00"/></g><g><path d="m334.644 207.029h-29.14l-33.201 53.915h26.106l-20.09 44.027 61.143-63.859h-28.399z" fill="#ffce00"/></g><g><path d="m311.063 241.112 23.582-34.083h-28.524v68.906l33.341-34.823z" fill="#fdba12"/></g></g></svg>