<svg id="Layer_1" enable-background="new 0 0 74 74" height="512" viewBox="0 0 74 74" width="512" xmlns="http://www.w3.org/2000/svg"><g><path d="m69 36.99c0 17.66-14.32 32.01-31.99 32.01-17.69 0-32.01-14.35-32.01-32.01 0-17.67 14.32-31.99 32.01-31.99 17.67 0 31.99 14.32 31.99 31.99z" fill="#d57030"/><path d="m63.5 36.99c0 14.63-11.86 26.51-26.49 26.51-14.65 0-26.51-11.88-26.51-26.51s11.86-26.49 26.51-26.49c14.63 0 26.49 11.86 26.49 26.49z" fill="#ed844a"/><path d="m57.58 49.11c-.37 1.52-.41 3.09-.1 4.62l.75 3.71c.16.78-.43 1.5-1.23 1.5h-8.04c-.59 0-1.1-.41-1.22-.99l-.33-1.52c-.31-1.48-.87-2.91-1.75-4.13-2.52-3.46-2.88-7.57-1.66-12.14.29-1.08.33-2.22.11-3.32l-.36-1.79c-.35.25-.79.41-1.26.41-1.17 0-2.12-.95-2.12-2.12 0-1.13.89-2.05 2-2.11l-.42-1.06c-.27-.16-.53-.33-.78-.52-.86-.66-1.9-1.08-2.99-1.08h-.47c-1.04 0-2.01.4-2.82 1.04-.26.21-.55.4-.84.56l-.47 1.21c.96.21 1.68 1.06 1.68 2.08 0 1.17-.95 2.12-2.12 2.12-.34 0-.66-.08-.94-.23l-.3 1.49c-.22 1.1-.19 2.24.1 3.32 1.23 4.57.87 8.68-1.65 12.14-.88 1.22-1.44 2.65-1.75 4.13l-.33 1.52c-.12.58-.63.99-1.23.99h-8.04c-.79 0-1.38-.72-1.23-1.5l.75-3.71c.31-1.53.28-3.1-.09-4.62l-1.85-7.42c-.89-3.6.45-7.39 3.42-9.62l3.67-2.77.22-4.31c-.06-.51-.06-1.03 0-1.56.35-2.99 2.7-5.46 5.67-5.92 1.99-.31 3.85.23 5.27 1.33.87.67 1.9 1.08 2.99 1.08h.47c1.04 0 2.01-.39 2.82-1.03 1.16-.92 2.63-1.47 4.23-1.47 4.02 0 7.25 3.48 6.79 7.61v.02l.21 4.25 3.67 2.77c2.96 2.23 4.31 6.02 3.41 9.62z" opacity=".15"/><g fill="#fff"><path d="m60.67 39.57c.95.95 2.49.95 3.44 0-.47.47-.71 1.1-.71 1.72s.24 1.25.71 1.72c-.95-.95-2.49-.95-3.44 0 .48-.48.71-1.1.71-1.72s-.23-1.24-.71-1.72z"/><path d="m49 13.11c.72.72 1.89.72 2.61 0-.36.36-.54.83-.54 1.3s.18.94.54 1.3c-.73-.71-1.89-.71-2.61.01.36-.36.54-.83.54-1.3-.01-.48-.18-.95-.54-1.31z"/><path d="m55.26 26.79c0-.59.47-1.07 1.06-1.07s1.07.48 1.07 1.07-.48 1.07-1.07 1.07-1.06-.48-1.06-1.07z"/><path d="m12.22 33.74c-.95.95-2.49.95-3.44 0 .48.47.71 1.1.71 1.72s-.24 1.25-.71 1.72c.95-.95 2.49-.95 3.44 0-.48-.48-.71-1.1-.71-1.72 0-.63.24-1.25.71-1.72z"/><path d="m33.39 10.03c-.72.72-1.89.72-2.61 0 .36.36.54.83.54 1.3s-.18.94-.54 1.3c.72-.72 1.89-.72 2.61 0-.36-.36-.54-.83-.54-1.3.01-.47.18-.94.54-1.3z"/><path d="m19.79 22.68c0-.59-.47-1.07-1.06-1.07s-1.07.48-1.07 1.07.48 1.07 1.07 1.07 1.06-.48 1.06-1.07z"/></g><g><g><g><g><path d="m22.94 22.73-.6 11.94c-.1 1.98 1.25 3.73 3.18 4.15 1.93.42 3.89-.62 4.62-2.46l4.4-11.12z" fill="#303149"/><g opacity=".1"><path d="m22.94 22.73-.26 5.14.58.3c3.09 1.6 5.03 4.79 5.03 8.28v1.98c.81-.44 1.48-1.16 1.84-2.07l4.4-11.12z"/></g><path d="m51.06 22.73.6 11.94c.1 1.98-1.25 3.73-3.18 4.15-1.93.42-3.89-.62-4.62-2.46l-4.4-11.12z" fill="#303149"/><g opacity=".1"><path d="m51.06 22.73-11.59 2.51 2.04 5.17h.47c3.92 0 7.1 3.18 7.1 7.1v1.13c1.6-.62 2.67-2.2 2.58-3.97z"/></g><path d="m51.12 23.85c-.33 3.01-2.69 5.49-5.68 5.95-1.99.31-3.85-.24-5.27-1.34-.87-.67-1.9-1.08-2.99-1.08h-.48c-1.03 0-2.01.4-2.82 1.04-1.16.92-2.63 1.47-4.23 1.47-4.05 0-7.26-3.52-6.78-7.65.35-2.99 2.7-5.46 5.68-5.92 1.98-.31 3.85.24 5.27 1.33.86.67 1.9 1.08 2.99 1.08h.47c1.03 0 2.01-.4 2.82-1.04 1.16-.92 2.63-1.46 4.23-1.46 4.03.01 7.25 3.49 6.79 7.62z" fill="#41435b"/><g opacity=".1"><path d="m45.98 16.44v2.09c0 4.5-3.65 8.15-8.15 8.15h-13.95c1.21 1.92 3.34 3.21 5.78 3.21 1.59 0 3.06-.55 4.23-1.47.81-.64 1.78-1.04 2.82-1.04h.47c1.09 0 2.13.42 2.99 1.08 1.42 1.1 3.28 1.65 5.28 1.33 3.02-.47 5.38-3 5.69-6.04.34-3.49-1.98-6.52-5.16-7.31z"/></g><path d="m40.09 19.97c-.01-.01-.02-.01-.04-.02-.16-.12-.2-.34-.08-.5 1.45-2 4.08-2.8 6.39-1.95.19.07.28.27.21.46s-.27.28-.46.21c-2.01-.75-4.3-.05-5.56 1.7-.1.14-.3.19-.46.1z" fill="#fff" opacity=".2"/><g opacity=".1"><path d="m31.36 20.12v1.1c0 .14-.07.27-.18.34l-.93.63c-.14.1-.33.1-.47 0l-.93-.63c-.11-.08-.18-.21-.18-.34v-1.1c0-.23.19-.42.42-.42h1.86c.22 0 .41.19.41.42z"/><path d="m28.67 26.73v-1.1c0-.14.07-.27.18-.34l.93-.63c.14-.1.33-.1.47 0l.93.63c.11.08.18.21.18.34v1.1c0 .23-.19.42-.42.42h-1.86c-.22-.01-.41-.19-.41-.42z"/><path d="m33.32 24.77h-1.1c-.14 0-.27-.07-.34-.18l-.63-.93c-.1-.14-.1-.33 0-.47l.63-.93c.08-.11.21-.18.34-.18h1.1c.23 0 .42.19.42.42v1.86c0 .22-.19.41-.42.41z"/><path d="m26.71 22.08h1.1c.14 0 .27.07.34.18l.63.93c.1.14.1.33 0 .47l-.63.93c-.08.11-.21.18-.34.18h-1.1c-.23 0-.42-.19-.42-.42v-1.85c.01-.23.19-.42.42-.42z"/></g><g><g opacity=".1"><circle cx="44.66" cy="20.32" r="1.41"/></g><g opacity=".1"><circle cx="44.66" cy="26.47" r="1.41"/></g><g opacity=".1"><circle cx="47.73" cy="23.39" r="1.41"/></g><g opacity=".1"><circle cx="41.59" cy="23.39" r="1.41"/></g></g><g><circle cx="44.34" cy="20" fill="#fcbb34" r="1.41"/><circle cx="44.34" cy="26.14" fill="#00e26d" r="1.41"/><circle cx="47.41" cy="23.07" fill="#ef3333" r="1.41"/><g opacity=".1"><path d="m48.15 21.87v.38c0 .83-.68 1.51-1.51 1.51h-.45c.3.52.91.84 1.58.68.48-.12.88-.52 1.01-1 .16-.66-.13-1.26-.63-1.57z"/></g><circle cx="41.27" cy="23.07" fill="#fff" r="1.41"/><g opacity=".1"><path d="m42 21.87v.38c0 .83-.68 1.51-1.51 1.51h-.45c.3.52.91.84 1.58.68.48-.12.88-.52 1.01-1 .17-.66-.13-1.26-.63-1.57z"/></g><g opacity=".1"><path d="m45.07 18.8v.38c0 .83-.68 1.51-1.51 1.51h-.45c.3.52.91.84 1.58.68.48-.12.88-.52 1.01-1 .17-.66-.13-1.26-.63-1.57z"/></g><g opacity=".1"><path d="m45.07 24.94v.38c0 .83-.68 1.51-1.51 1.51h-.45c.3.52.91.84 1.58.68.48-.12.88-.52 1.01-1 .17-.65-.13-1.26-.63-1.57z"/></g></g><path d="m31.01 19.77v1.1c0 .14-.07.27-.18.34l-.93.63c-.14.1-.33.1-.47 0l-.93-.63c-.11-.08-.18-.21-.18-.34v-1.1c0-.23.19-.42.42-.42h1.86c.22 0 .41.19.41.42z" fill="#fff"/><g opacity=".1"><path d="m30.59 19.35h-.4v.42c0 .76-.62 1.38-1.38 1.38h-.36c.02.02.03.05.06.07l.93.63c.14.1.33.1.47 0l.93-.63c.11-.08.18-.21.18-.34v-1.1c-.01-.24-.2-.43-.43-.43z"/></g><path d="m28.32 26.37v-1.1c0-.14.07-.27.18-.34l.93-.63c.14-.1.33-.1.47 0l.93.63c.11.08.18.21.18.34v1.1c0 .23-.19.42-.42.42h-1.86c-.23 0-.41-.19-.41-.42z" fill="#fff"/><path d="m32.97 24.42h-1.1c-.14 0-.27-.07-.34-.18l-.63-.93c-.1-.14-.1-.33 0-.47l.63-.93c.08-.11.21-.18.34-.18h1.1c.23 0 .42.19.42.42v1.85c-.01.23-.19.42-.42.42z" fill="#fff"/><g opacity=".1"><path d="m32.97 21.72h-.11v1.18c0 .5-.41.91-.91.91h-.71l.29.42c.08.11.21.18.34.18h1.1c.23 0 .42-.19.42-.42v-1.86c-.01-.22-.19-.41-.42-.41z"/></g><g opacity=".1"><path d="m28.32 26.37v-.11h1.18c.5 0 .91-.41.91-.91v-.71l.42.29c.11.08.18.21.18.34v1.1c0 .23-.19.42-.42.42h-1.86c-.23 0-.41-.19-.41-.42z"/></g><path d="m26.36 21.72h1.1c.14 0 .27.07.34.18l.63.93c.1.14.1.33 0 .47l-.63.93c-.08.11-.21.18-.34.18h-1.1c-.23 0-.42-.19-.42-.42v-1.86c0-.22.19-.41.42-.41z" fill="#fff"/><g opacity=".1"><path d="m25.94 24v-.4h.42c.76 0 1.38-.62 1.38-1.38v-.36c.02.02.05.03.07.06l.63.93c.1.14.1.33 0 .47l-.63.93c-.08.11-.21.18-.34.18h-1.1c-.24-.01-.43-.2-.43-.43z"/></g><g fill="#303149"><path d="m35.41 20h3.19v.64h-3.19z"/><path d="m35.41 21.34h3.19v.64h-3.19z"/><path d="m35.41 22.68h3.19v.64h-3.19z"/></g></g><g><path d="m34.26 32.28c0 1.17-.95 2.12-2.12 2.12s-2.12-.95-2.12-2.12.95-2.12 2.12-2.12 2.12.95 2.12 2.12z" fill="#41435b"/><g opacity=".1"><path d="m33.3 30.51v.15c0 1.44-1.17 2.61-2.61 2.61h-.41c.41.77 1.28 1.26 2.25 1.09.84-.15 1.53-.82 1.69-1.65.18-.91-.24-1.75-.92-2.2z"/></g><path d="m33.56 32.28c0 .78-.64 1.42-1.42 1.42s-1.42-.64-1.42-1.42.64-1.42 1.42-1.42 1.42.64 1.42 1.42z" fill="#00e26d"/><g opacity=".1"><path d="m33.56 32.28c0 .78-.64 1.42-1.42 1.42-.52 0-.98-.29-1.22-.71.21.13.45.2.72.2.79 0 1.42-.64 1.42-1.42 0-.26-.07-.51-.2-.72.42.25.7.7.7 1.23z"/></g></g><g><path d="m43.71 32.28c0 1.17-.95 2.12-2.12 2.12s-2.12-.95-2.12-2.12.95-2.12 2.12-2.12 2.12.95 2.12 2.12z" fill="#41435b"/><g opacity=".1"><path d="m42.75 30.51v.15c0 1.44-1.17 2.61-2.61 2.61h-.41c.41.77 1.28 1.26 2.25 1.09.84-.15 1.53-.82 1.69-1.65.18-.91-.23-1.75-.92-2.2z"/></g><path d="m43.01 32.28c0 .78-.64 1.42-1.42 1.42s-1.42-.64-1.42-1.42.64-1.42 1.42-1.42c.79 0 1.42.64 1.42 1.42z" fill="#ef3333"/><g opacity=".1"><path d="m43.02 32.28c0 .78-.64 1.42-1.42 1.42-.52 0-.98-.29-1.22-.71.21.13.45.2.72.2.79 0 1.42-.64 1.42-1.42 0-.26-.07-.51-.2-.72.41.25.7.7.7 1.23z"/></g></g><g fill="#fff"><path d="m23.54 34.57c-.01 0-.02 0-.03 0-.2-.02-.34-.19-.32-.39l.34-3.71c.02-.2.2-.34.39-.32.2.02.34.19.32.39l-.34 3.71c-.02.18-.18.32-.36.32z" opacity=".2"/><path d="m46.14 36.66c-.01.01-.02.01-.03.01-.18.08-.39 0-.47-.18l-1.52-3.4c-.08-.18.01-.39.18-.47.18-.08.39 0 .47.18l1.52 3.4c.08.17.01.37-.15.46z" opacity=".2"/><path d="m24.24 22.61c-.01 0-.03 0-.04 0-.2-.02-.34-.2-.31-.4.29-2.46 2.19-4.44 4.62-4.82.2-.03.38.1.41.3s-.1.38-.3.41c-2.12.33-3.77 2.06-4.02 4.2-.03.17-.18.31-.36.31z" opacity=".2"/></g></g></g><g><path d="m43.11 35.66c.22 1.1.18 2.24-.11 3.32-1.23 4.57-.86 8.67 1.65 12.14.89 1.22 1.44 2.65 1.75 4.13l.33 1.52c.12.58.64.99 1.23.99h8.04c.79 0 1.39-.73 1.23-1.5l-.75-3.71c-.31-1.53-.28-3.11.1-4.62l1.84-7.42c.89-3.6-.45-7.39-3.41-9.62l-3.67-2.77c.13 2.62.13 6.33.12 7.96 0 .48-.32.9-.77 1.03-.99.29-2.02-.31-2.25-1.31l-1.59-6.8c-.27-1.16-1.29-2.05-2.48-2.03-1.61.03-2.72 1.49-2.42 2.99z" fill="#fc9"/><g opacity=".05"><path d="m56.58 47.93c-.37 1.51-.41 3.09-.1 4.62l.75 3.7c.16.78-.43 1.51-1.23 1.51h-8.04c-.59 0-1.1-.42-1.22-1l-.25-1.17h3.68c2.74 0 4.8-2.52 4.26-5.21-.14-.69-.21-1.39-.21-2.09 0-.85.1-1.7.31-2.53l1.84-7.42c.64-2.6.12-5.3-1.34-7.44 2.95 2.24 4.29 6.01 3.39 9.6z"/></g><path d="m46.25 29.48.51 2.09c.04.18-.07.37-.25.41l-2.8.67c-.18.04-.36-.07-.41-.25l-.5-2.09c-.23-.96.36-1.92 1.31-2.14.95-.23 1.91.36 2.14 1.31z" fill="#fff"/><g fill="#f2ba88"><path d="m47.18 35.11c.02.09-.03.18-.12.21l-2.41.6c-.09.02-.18-.04-.21-.12-.02-.09.04-.18.12-.21l2.41-.6c.1-.02.19.04.21.12z"/><path d="m46.65 34.54c.02.09-.03.18-.12.21l-1.68.42c-.09.02-.18-.04-.21-.12s.04-.18.12-.21l1.68-.42c.1-.03.19.03.21.12z"/><path d="m46.98 35.87c.02.09-.03.18-.12.21l-1.68.42c-.09.02-.18-.04-.21-.12-.02-.09.04-.18.12-.21l1.68-.42c.1-.03.19.03.21.12z"/></g></g><g><path d="m30.89 35.66c-.22 1.1-.18 2.24.11 3.32 1.23 4.57.86 8.67-1.65 12.14-.89 1.22-1.44 2.65-1.75 4.13l-.33 1.52c-.12.58-.64.99-1.23.99h-8.04c-.79 0-1.39-.73-1.23-1.5l.75-3.71c.31-1.53.28-3.11-.1-4.62l-1.84-7.42c-.89-3.6.45-7.39 3.41-9.62l3.67-2.77c-.13 2.62-.13 6.33-.12 7.96 0 .48.32.9.77 1.03.99.29 2.02-.31 2.25-1.31l1.57-6.8c.27-1.16 1.29-2.05 2.48-2.03 1.61.03 2.72 1.49 2.42 2.99z" fill="#fc9"/><path d="m18.94 46.77c-.17 0-.32-.11-.36-.29l-1.48-5.98c-.41-1.65-.28-3.34.38-4.91.08-.19.3-.28.49-.2s.28.3.2.49c-.59 1.42-.71 2.95-.34 4.44l1.48 5.98c.05.2-.07.4-.27.45-.04.01-.07.02-.1.02z" fill="#fff" opacity=".3"/><path d="m27.75 29.48-.51 2.09c-.04.18.07.37.25.41l2.8.67c.18.04.36-.07.41-.25l.5-2.09c.23-.96-.36-1.92-1.31-2.14-.95-.23-1.91.36-2.14 1.31z" fill="#fff"/><g opacity=".05"><path d="m30.9 35.66c-.22 1.09-.19 2.23.1 3.32 1.23 4.57.87 8.67-1.65 12.13-.88 1.22-1.44 2.65-1.75 4.13l-.33 1.52c-.12.58-.63 1-1.22 1h-8.05c-.79 0-1.38-.73-1.23-1.51l.26-1.29h5.38c.75 0 1.45-.26 2-.71s.96-1.07 1.11-1.81c.32-1.47.87-2.9 1.76-4.12 2.51-3.47 2.88-7.57 1.65-12.14-.29-1.08-.33-2.22-.11-3.32l1.15-5.7c.01-.05.02-.1.02-.15 1.41.21 2.34 1.57 2.05 2.95z"/></g><g fill="#f2ba88"><path d="m26.82 35.11c-.02.09.03.18.12.21l2.41.6c.09.02.18-.04.21-.12.02-.09-.04-.18-.12-.21l-2.41-.6c-.1-.02-.19.04-.21.12z"/><path d="m27.35 34.54c-.02.09.03.18.12.21l1.68.42c.09.02.18-.04.21-.12s-.04-.18-.12-.21l-1.68-.42c-.1-.03-.19.03-.21.12z"/><path d="m27.02 35.87c-.02.09.03.18.12.21l1.68.42c.09.02.18-.04.21-.12s-.04-.18-.12-.21l-1.68-.42c-.1-.03-.19.03-.21.12z"/></g></g></g></g></svg>