<?xml version="1.0" encoding="iso-8859-1"?>
<!-- Generator: Adobe Illustrator 19.0.0, SVG Export Plug-In . SVG Version: 6.00 Build 0)  -->
<svg version="1.1" id="Layer_1" xmlns="http://www.w3.org/2000/svg" xmlns:xlink="http://www.w3.org/1999/xlink" x="0px" y="0px"
	 viewBox="0 0 408.759 408.759" style="enable-background:new 0 0 408.759 408.759;" xml:space="preserve">
<g>
	<path style="fill:#FFBE00;" d="M204.384,408.759c-58.121,0-113.674-24.867-152.417-68.225
		C18.459,303.057,0.004,254.703,0.004,204.381C0.004,91.685,91.689,0,204.384,0c50.317,0,98.674,18.455,136.165,51.964
		c43.346,38.762,68.205,94.316,68.205,152.417C408.755,317.076,317.075,408.759,204.384,408.759"/>
	<path style="fill:#F4502A;" d="M377.752,204.379c0,17.371-2.561,34.151-7.32,49.96c-0.19,0.65-0.392,1.3-0.591,1.941
		c-18.08,57.709-65.509,102.44-124.8,116.67c-7.58,1.83-15.349,3.15-23.279,3.941c-5.721,0.58-11.51,0.87-17.38,0.87
		c-51.39,0-97.561-22.361-129.301-57.881c-0.26-0.29-0.521-0.591-0.79-0.881c-26.95-30.56-43.291-70.68-43.291-114.62
		c0-95.749,77.621-173.38,173.381-173.38c43.95,0,84.069,16.35,114.629,43.29c0.29,0.27,0.591,0.53,0.881,0.79
		C355.4,106.84,377.752,152.989,377.752,204.379"/>
	<path style="fill:#C29100;" d="M74.65,319.396c0.048,0.054,0.098,0.11,0.146,0.164C74.748,319.506,74.699,319.451,74.65,319.396"/>
	<path style="fill:#BA3D20;" d="M204.384,31.001c-95.76,0-173.38,77.619-173.38,173.368c0,44.14,16.485,84.423,43.646,115.027
		c0.049,0.055,0.097,0.109,0.146,0.164c5.474,6.153,11.378,11.91,17.668,17.231c-25.53-30.2-40.919-69.241-40.919-111.881
		c0-95.749,77.619-173.368,173.38-173.368c42.629,0,81.68,15.39,111.87,40.919C305.006,54.871,257.484,31.001,204.384,31.001"/>
	<g>
		<polygon style="fill:#BA3D20;" points="194.074,321.981 194.074,321.97 194.072,321.979 		"/>
		<path style="fill:#BA3D20;" d="M286.741,170.65l-49.159-49.161l-79.758,61.577l-12.412-12.416h-9.028v55.999l65.812,36.429
			c0.372,1.817,0.754,3.743,1.139,5.703c-22.055-4.038-47.526-10.132-55.341-17.779l50.251,50.25l-4.168,20.73l50.965,50.967
			c59.291-14.23,106.72-58.961,124.8-116.67c0.199-0.641,0.401-1.291,0.591-1.941L286.741,170.65z"/>
	</g>
	<path style="fill:#B3B3B3;" d="M251.74,153.979v38.67c0,25.77-20.89,46.67-46.67,46.67c-16.77,0-31.48-8.85-39.7-22.14
		c-4.41-7.13-6.96-15.54-6.96-24.53v-38.67c0-25.77,20.89-46.66,46.66-46.66c9,0,17.41,2.55,24.54,6.97c3.08,1.9,5.92,4.15,8.46,6.7
		C246.52,129.429,251.74,141.089,251.74,153.979z"/>
	<path style="fill:#FFFFFF;" d="M236.57,138.809v38.67c0,25.77-20.9,46.66-46.67,46.66c-8.99,0-17.4-2.55-24.53-6.96
		c-4.41-7.13-6.96-15.54-6.96-24.53v-38.67c0-25.77,20.89-46.66,46.66-46.66c9,0,17.41,2.55,24.54,6.97
		C234.02,121.419,236.57,129.819,236.57,138.809z"/>
	<path style="fill:#157D8E;" d="M286.741,170.65L286.741,170.65H264.74v21.999l0,0c0,32.9-26.769,59.67-59.67,59.67
		c-2.018,0-4.009-0.1-5.979-0.299l11.296,11.296h5.688v5.688l3.937,3.937c37.92-7.03,66.73-40.362,66.73-80.291v-22"/>
	<polyline style="fill:#157D8E;" points="216.074,263.316 210.386,263.316 216.074,269.003 216.074,263.316 	"/>
	<path style="fill:#1CA4BA;" d="M286.741,170.65v21.999c0,39.93-28.809,73.261-66.73,80.291c-4.851,0.909-9.841,1.379-14.941,1.379
		c-45.03,0-81.66-36.641-81.66-81.671V170.65h22.001v21.999c0,30.881,23.58,56.361,53.68,59.371c1.97,0.199,3.961,0.299,5.979,0.299
		c32.901,0,59.67-26.771,59.67-59.67V170.65H286.741"/>
	<polyline style="fill:#1CA4BA;" points="216.074,321.983 194.074,321.983 194.074,263.316 216.074,263.316 216.074,321.983 	"/>
</g>
<g>
</g>
<g>
</g>
<g>
</g>
<g>
</g>
<g>
</g>
<g>
</g>
<g>
</g>
<g>
</g>
<g>
</g>
<g>
</g>
<g>
</g>
<g>
</g>
<g>
</g>
<g>
</g>
<g>
</g>
</svg>
