<svg id="filled_outline" height="512" viewBox="0 0 512 512" width="512" xmlns="http://www.w3.org/2000/svg" data-name="filled outline"><path d="m177.7 96.853a169.279 169.279 0 0 0 -89.384 173.247l5.376 38.9 34.308-5-5.013-42.613a133.929 133.929 0 0 1 73.113-135.439 133.93 133.93 0 0 1 119.792 0 133.929 133.929 0 0 1 73.117 135.439l-5.009 42.613 34.308 5 5.376-38.9a169.279 169.279 0 0 0 -89.384-173.247 169.274 169.274 0 0 0 -156.6 0z" fill="#92d1f7"/><path d="m320.22 257.518-64.22 64.221-64.22-64.221a26.56 26.56 0 0 1 -3.319-33.518 35.943 35.943 0 0 1 29.9-16 35.942 35.942 0 0 1 25.414 10.527l12.225 12.221 12.221-12.221a35.942 35.942 0 0 1 25.414-10.527 35.943 35.943 0 0 1 29.9 16 26.56 26.56 0 0 1 -3.315 33.518z" fill="#e94a41"/><path d="m121.782 303.187-28.09 5.813a27.318 27.318 0 0 0 -17.292 11.753 27.315 27.315 0 0 0 -3.917 20.535l14.877 71.848a27.316 27.316 0 0 0 11.75 17.291 27.316 27.316 0 0 0 20.535 3.917l28.09-5.816z" fill="#5ebef7"/><rect fill="#e6e5e0" height="160" rx="32" transform="matrix(.979 -.203 .203 .979 -69.91 39.589)" width="64" x="126.261" y="280.991"/><path d="m390.218 303.187 28.09 5.813a27.318 27.318 0 0 1 17.291 11.75 27.315 27.315 0 0 1 3.917 20.535l-14.877 71.848a27.316 27.316 0 0 1 -11.75 17.291 27.316 27.316 0 0 1 -20.535 3.917l-28.09-5.816z" fill="#5ebef7"/><rect fill="#e6e5e0" height="160" rx="32" transform="matrix(-.979 -.203 .203 -.979 626.932 786.21)" width="64" x="321.739" y="280.991"/><path d="m364.82 346.96-19.4 93.01a32.209 32.209 0 0 1 -15.65-3.31l19.38-92.97a8 8 0 0 1 15.67 3.27z" fill="#e6e5e0"/><path d="m330.2 219.566a43.942 43.942 0 0 0 -67.632-6.7l-6.568 6.568-6.563-6.564a43.941 43.941 0 0 0 -67.632 6.7 34.653 34.653 0 0 0 4.318 43.608l64.22 64.221a8 8 0 0 0 11.314 0l64.22-64.221a34.657 34.657 0 0 0 4.323-43.612zm-15.632 32.295-58.568 58.564-58.563-58.564a18.61 18.61 0 0 1 -2.32-23.419 27.94 27.94 0 0 1 43.005-4.258l12.221 12.22a8 8 0 0 0 11.314 0l12.221-12.22a27.94 27.94 0 0 1 43.005 4.258 18.61 18.61 0 0 1 -2.32 23.419z"/><path d="m142.316 323.445a8 8 0 0 0 15.668-3.246l-1.623-7.834a8 8 0 1 0 -15.668 3.246z"/><path d="m335.9 447.163a39.891 39.891 0 0 0 34.557-9.184l20.278 4.2a35.641 35.641 0 0 0 7.233.745 35.346 35.346 0 0 0 34.509-28.165l14.878-71.848a35.322 35.322 0 0 0 -20.2-39.418l4.462-32.3a177.276 177.276 0 1 0 -351.216 0l4.462 32.3a35.322 35.322 0 0 0 -20.2 39.418l14.878 71.848a35.346 35.346 0 0 0 34.509 28.165 35.641 35.641 0 0 0 7.233-.745l20.276-4.2a39.987 39.987 0 0 0 65.618-38.1l-19.477-94.003a40 40 0 0 0 -54.8-28.708l-1.966-16.715a125.931 125.931 0 1 1 250.136 0l-1.97 16.715a40 40 0 0 0 -54.8 28.709l-19.466 94.006a40.046 40.046 0 0 0 31.066 47.28zm93.016-122.017a19.185 19.185 0 0 1 2.771 14.52l-14.878 71.848a19.313 19.313 0 0 1 -22.829 15l-13.219-2.737a40 40 0 0 0 2.419-7.669l19.466-94a40.032 40.032 0 0 0 .833-8l10.16 2.1c.537.204 12.461 4.663 15.273 8.938zm-310.892 101.364a19.313 19.313 0 0 1 -22.829-15l-14.878-71.844a19.316 19.316 0 0 1 15-22.829l13.212-2.735a40.04 40.04 0 0 0 .833 8l19.466 94.006a39.994 39.994 0 0 0 2.419 7.668zm25.637-136.023a24.157 24.157 0 0 1 4.916-.507 24.022 24.022 0 0 1 23.452 19.141l19.471 94.006a24.039 24.039 0 0 1 -11.08 25.4l-17.569-84.827a8 8 0 1 0 -15.668 3.244l17.565 84.827a24.04 24.04 0 0 1 -20.256-18.912l-19.466-94.006a24.028 24.028 0 0 1 18.635-28.366zm175.813-171.7a141.931 141.931 0 0 0 -204.433 143.53l3.032 25.775a40.33 40.33 0 0 0 -5.725 8.873l-11.9 2.465-4.207-30.43a161.277 161.277 0 1 1 319.518 0l-4.2 30.432-11.9-2.465a40.353 40.353 0 0 0 -5.725-8.873l3.032-25.775a142.315 142.315 0 0 0 -77.492-143.527zm1.031 284.335 19.466-94a24.022 24.022 0 0 1 23.452-19.142 24.038 24.038 0 0 1 23.551 28.874l-19.466 94.006a24.037 24.037 0 0 1 -20.256 18.91l17.565-84.825a8 8 0 1 0 -15.668-3.244l-17.564 84.824a24.039 24.039 0 0 1 -11.08-25.398z"/><path d="m360.227 329.655a7.992 7.992 0 0 0 9.457-6.21l1.623-7.834a8 8 0 1 0 -15.668-3.246l-1.623 7.834a8 8 0 0 0 6.211 9.456z"/></svg>