<?xml version="1.0" encoding="iso-8859-1"?>
<!-- Generator: Adobe Illustrator 19.0.0, SVG Export Plug-In . SVG Version: 6.00 Build 0)  -->
<svg version="1.1" id="Capa_1" xmlns="http://www.w3.org/2000/svg" xmlns:xlink="http://www.w3.org/1999/xlink" x="0px" y="0px"
	 viewBox="0 0 512 512" style="enable-background:new 0 0 512 512;" xml:space="preserve">
<circle style="fill:#FFE670;" cx="256" cy="256" r="256"/>
<path style="fill:#FDC000;" d="M511.926,261.821l-120.67-120.67c-2.19-2.313-4.445-4.562-6.755-6.755
	C352.227,100.305,306.569,78.999,255.998,79C158.245,79.001,79.001,158.245,79,255.998c-0.001,50.571,21.305,96.229,55.396,128.503
	l127.425,127.425C398.581,508.874,508.874,398.581,511.926,261.821z"/>
<path style="fill:#FFFFFF;" d="M370.328,302.21L370.328,302.21c20.748,20.748,56.396,9.127,60.727-19.893
	c1.24-8.311,1.902-16.81,1.943-25.457c0.466-97.944-79.054-177.861-177-177.86C158.245,79.001,79.001,158.245,79,255.998
	c-0.001,97.945,79.915,177.466,177.86,177c8.647-0.041,17.146-0.703,25.457-1.943c29.02-4.331,40.641-39.979,19.893-60.727l0,0
	c-18.81-18.81-18.81-49.308,0-68.118l0,0C321.02,283.4,351.517,283.4,370.328,302.21z"/>
<path style="fill:#FFF5CB;" d="M433,256.86c-0.04,8.65-0.71,17.15-1.95,25.46c-4.33,29.02-39.97,40.64-60.72,19.89
	c-9.41-9.41-21.73-14.11-34.06-14.11s-24.65,4.7-34.06,14.11s-14.11,21.73-14.11,34.06s4.7,24.65,14.11,34.06
	c20.75,20.75,9.13,56.39-19.89,60.72c-8.31,1.24-16.81,1.91-25.46,1.95H256V79C353.94,79,433.46,158.92,433,256.86z"/>
<ellipse transform="matrix(-0.0083 -1 1 -0.0083 111.0937 391.9711)" style="fill:#FF9A00;" cx="249.912" cy="140.898" rx="30.629" ry="36.191"/>
<path style="fill:#E67500;" d="M286.09,140.6c0.13,15.23-12.9,27.97-30.09,30.47v-60.38C272.98,113.08,285.96,125.51,286.09,140.6z"
	/>
<ellipse transform="matrix(-0.5908 0.8068 -0.8068 -0.5908 603.7499 403.3119)" style="fill:#006EF5;" cx="199.601" cy="354.758" rx="30.629" ry="36.189"/>
<ellipse transform="matrix(-0.993 -0.1181 0.1181 -0.993 264.8697 473.2167)" style="fill:#00EFD1;" cx="146.456" cy="228.761" rx="30.629" ry="36.19"/>
<ellipse transform="matrix(-0.8242 0.5663 -0.5663 -0.8242 784.5309 180.1216)" style="fill:#FF4F19;" cx="364.307" cy="211.835" rx="30.628" ry="36.19"/>
<g>
</g>
<g>
</g>
<g>
</g>
<g>
</g>
<g>
</g>
<g>
</g>
<g>
</g>
<g>
</g>
<g>
</g>
<g>
</g>
<g>
</g>
<g>
</g>
<g>
</g>
<g>
</g>
<g>
</g>
</svg>
