<?xml version="1.0" encoding="iso-8859-1"?>
<!-- Generator: Adobe Illustrator 19.0.0, SVG Export Plug-In . SVG Version: 6.00 Build 0)  -->
<svg xmlns="http://www.w3.org/2000/svg" xmlns:xlink="http://www.w3.org/1999/xlink" version="1.1" id="Layer_1" x="0px" y="0px" viewBox="0 0 511.426 511.426" style="enable-background:new 0 0 511.426 511.426;" xml:space="preserve" width="512" height="512">
<g>
	<g>
		<path style="fill:#FFCD38;" d="M482.978,180.949L341.289,160.36L277.924,31.969c-9.086-18.41-35.337-18.41-44.423,0    L170.136,160.36L28.447,180.949c-20.316,2.952-28.428,27.919-13.727,42.249l102.527,99.939L93.043,464.253    c-3.47,20.234,17.768,35.664,35.939,26.111l126.73-66.626l126.73,66.626c18.171,9.553,39.409-5.877,35.939-26.111l-24.203-141.116    l102.527-99.939C511.406,208.868,503.294,183.901,482.978,180.949z"/>
	</g>
	<g>
		<path d="M201.275,114.112c1.833-3.714,0.308-8.211-3.406-10.045c-3.716-1.834-8.211-0.308-10.045,3.406l-22.664,45.923    c0,0-137.582,19.992-137.787,20.022c-25.944,3.77-36.66,36.739-17.884,55.042l99.704,97.187c0,0-23.497,136.999-23.537,137.229    c-4.423,25.787,23.624,46.212,46.821,34.018l123.24-64.792c0,0,123.08,64.707,123.24,64.791    c23.289,12.244,51.25-8.194,46.822-34.017l-23.538-137.23c0,0,99.577-97.063,99.703-97.186    c18.796-18.321,7.994-51.281-17.884-55.042l-137.787-20.022c0,0-61.538-124.69-61.62-124.856    c-11.629-23.563-46.271-23.51-57.874,0l-24.927,50.506c-1.833,3.714-0.308,8.211,3.406,10.045    c3.714,1.833,8.211,0.308,10.045-3.406l24.927-50.506c2.975-6.027,8.763-9.626,15.485-9.626c6.723,0,12.512,3.599,15.487,9.626    l63.365,128.392c1.092,2.213,3.204,3.748,5.647,4.103c0,0,141.289,20.531,141.688,20.589c13.929,2.024,19.649,19.634,9.572,29.457    l-102.527,99.939c-1.768,1.723-2.575,4.206-2.157,6.639c0,0,24.122,140.638,24.204,141.115    c2.382,13.889-12.583,24.764-25.057,18.206l-126.73-66.626c-2.186-1.148-4.795-1.148-6.98,0c0,0-126.265,66.382-126.729,66.626    c-12.512,6.578-27.434-4.349-25.057-18.204l24.203-141.116c0.417-2.433-0.389-4.916-2.157-6.639    c0,0-102.232-99.652-102.526-99.938c-10.092-9.838-4.313-27.439,9.57-29.457l141.689-20.589c2.443-0.355,4.555-1.889,5.647-4.103    L201.275,114.112z"/>
		<path d="M168.965,236.064c-4.142,0-7.5,3.358-7.5,7.5v15.7c0,4.142,3.358,7.5,7.5,7.5s7.5-3.358,7.5-7.5v-15.7    C176.465,239.422,173.107,236.064,168.965,236.064z"/>
		<path d="M349.968,259.264v-15.7c0-4.142-3.358-7.5-7.5-7.5s-7.5,3.358-7.5,7.5v15.7c0,4.142,3.358,7.5,7.5,7.5    S349.968,263.406,349.968,259.264z"/>
		<path d="M255.716,275.145c10.509,0,20.372-4.387,27.059-12.037c2.726-3.119,2.408-7.857-0.711-10.583s-7.857-2.408-10.583,0.711    c-3.838,4.391-9.584,6.909-15.765,6.909s-11.927-2.518-15.765-6.909c-2.726-3.119-7.464-3.437-10.583-0.711    c-3.119,2.726-3.437,7.464-0.711,10.583C235.345,270.758,245.207,275.145,255.716,275.145z"/>
	</g>
</g>















</svg>
