<svg height="512" viewBox="0 0 64 64" width="512" xmlns="http://www.w3.org/2000/svg"><g id="vinyl-musice-love-song-romance"><circle cx="32" cy="32" fill="#ff7956" r="29"/><path d="m61 32a29 29 0 0 1 -51.41 18.41 29 29 0 0 0 40.82-40.82 28.93 28.93 0 0 1 10.59 22.41z" fill="#ff5023"/><circle cx="32" cy="32" fill="#ffeb99" r="25"/><path d="m57 32a24.983 24.983 0 0 1 -44.55 15.55 24.767 24.767 0 0 0 15.55 5.45 25.022 25.022 0 0 0 25-25 24.767 24.767 0 0 0 -5.45-15.55 24.9 24.9 0 0 1 9.45 19.55z" fill="#ebbf00"/><path d="m34 29a2.006 2.006 0 0 1 2 2c0 2-4 5-4 5s-4-3-4-5a2 2 0 0 1 4 0 2.006 2.006 0 0 1 2-2z" fill="#ed539d"/><path d="m32 2a30 30 0 1 0 30 30 30.034 30.034 0 0 0 -30-30zm0 58a28 28 0 1 1 28-28 28.032 28.032 0 0 1 -28 28z"/><path d="m32 6a26 26 0 1 0 26 26 26.029 26.029 0 0 0 -26-26zm0 50a24 24 0 1 1 24-24 24.028 24.028 0 0 1 -24 24z"/><path d="m20 32h-2a14.015 14.015 0 0 0 14 14v-2a12.013 12.013 0 0 1 -12-12z"/><path d="m44 32h2a14.015 14.015 0 0 0 -14-14v2a12.013 12.013 0 0 1 12 12z"/><path d="m21 27v-7.382l4-2v6.382h-2v2h3a1 1 0 0 0 1-1v-9a1 1 0 0 0 -1.447-.895l-6 3a1 1 0 0 0 -.553.895v7h-2v2h3a1 1 0 0 0 1-1z"/><path d="m46.525 37.149a1 1 0 0 0 -.972-.044l-6 3a1 1 0 0 0 -.553.895v7h-2v2h3a1 1 0 0 0 1-1v-7.382l4-2v6.382h-2v2h3a1 1 0 0 0 1-1v-9a1 1 0 0 0 -.475-.851z"/><path d="m34 28a2.987 2.987 0 0 0 -2 .766 3 3 0 0 0 -5 2.234c0 2.38 3.665 5.249 4.4 5.8a1 1 0 0 0 1.2 0c.735-.551 4.4-3.42 4.4-5.8a3 3 0 0 0 -3-3zm-2 6.727c-1.537-1.269-3-2.91-3-3.727a1 1 0 0 1 2 0 1 1 0 0 0 2 0 1 1 0 0 1 2 0c0 .817-1.463 2.458-3 3.727z"/></g></svg>