<svg id="Capa_1" enable-background="new 0 0 512.036 512.036" height="512" viewBox="0 0 512.036 512.036" width="512" xmlns="http://www.w3.org/2000/svg"><g><g><path d="m485.971 185.832h-162.219l-50.129-154.28c-5.541-17.055-29.669-17.055-35.21 0l-50.129 154.28-173.1 33.487 131.238 95.35-50.128 154.281c-5.542 17.054 13.978 31.236 28.486 20.696l131.238-95.35 131.238 95.35c14.508 10.541 34.027-3.642 28.486-20.696l-50.129-154.28 131.238-95.35c14.508-10.541 7.052-33.488-10.88-33.488z" fill="#ffe07d"/><path d="m26.065 185.832c-17.932 0-25.388 22.947-10.881 33.487l131.238 95.35-50.129 154.28c-5.541 17.055 13.978 31.237 28.486 20.696l131.238-95.35 131.238 95.35c8.159 5.928 17.903 4.036 23.884-1.788l-245.518-211.303c-5.089-4.38-6.91-11.466-4.563-17.756l27.226-72.966z" fill="#ffd064"/><g fill="#fff0af"><circle cx="109.056" cy="185.931" r="48.097"/><circle cx="387.95" cy="386.669" r="32.604"/></g></g><g><path d="m60.959 193.431c22.385 0 40.597 18.212 40.597 40.597 0 4.142 3.358 7.5 7.5 7.5s7.5-3.358 7.5-7.5c0-22.385 18.211-40.597 40.597-40.597 4.142 0 7.5-3.358 7.5-7.5s-3.358-7.5-7.5-7.5c-22.385 0-40.597-18.212-40.597-40.597 0-4.143-3.358-7.5-7.5-7.5s-7.5 3.357-7.5 7.5c0 22.385-18.211 40.597-40.597 40.597-4.142 0-7.5 3.358-7.5 7.5s3.358 7.5 7.5 7.5zm48.097-27.731c4.869 8.371 11.86 15.362 20.231 20.231-8.371 4.869-15.363 11.86-20.231 20.231-4.869-8.371-11.86-15.363-20.231-20.231 8.37-4.869 15.362-11.86 20.231-20.231z"/><path d="m411.5 431.625c-1.28-3.939-5.514-6.096-9.45-4.815-3.939 1.28-6.096 5.511-4.815 9.45l11.375 35.008c1.823 5.61-.871 10.038-4 12.311-3.128 2.273-8.172 3.468-12.945 0l-131.238-95.35c-2.628-1.91-6.188-1.91-8.816 0l-131.239 95.35c-4.772 3.467-9.815 2.273-12.944 0s-5.823-6.701-4-12.311l50.128-154.28c1.004-3.09-.096-6.475-2.725-8.385l-131.238-95.35c-4.772-3.467-5.195-8.633-4-12.311 1.195-3.679 4.574-7.608 10.473-7.608h2.83c4.142 0 7.5-3.358 7.5-7.5 0-4.143-3.358-7.5-7.5-7.5h-2.83c-11.48 0-21.19 7.055-24.738 17.973-3.548 10.919.161 22.334 9.449 29.082l126.83 92.147-48.446 149.096c-3.548 10.918.161 22.333 9.449 29.082 9.286 6.747 21.29 6.748 30.578 0l126.83-92.147 126.83 92.147c4.644 3.374 9.966 5.061 15.289 5.061s10.646-1.687 15.289-5.061c9.288-6.748 12.997-18.163 9.449-29.082z"/><path d="m510.709 196.305c-3.548-10.918-13.258-17.973-24.738-17.973h-156.77l-48.445-149.097c-3.547-10.918-13.258-17.974-24.738-17.974s-21.191 7.055-24.738 17.974l-50.128 154.28c-1.28 3.939.876 8.17 4.815 9.451 3.942 1.279 8.171-.876 9.451-4.815l50.128-154.28c1.823-5.61 6.605-7.609 10.473-7.609s8.65 1.999 10.473 7.609l50.128 154.28c1.004 3.09 3.884 5.183 7.133 5.183h162.219c5.898 0 9.277 3.93 10.473 7.608 1.195 3.678.772 8.844-4 12.311l-131.238 95.35c-2.629 1.91-3.729 5.295-2.725 8.385l8.096 24.917c1.03 3.169 3.97 5.185 7.131 5.184.768 0 1.549-.119 2.319-.369 3.939-1.28 6.096-5.512 4.815-9.451l-6.412-19.733 126.83-92.147c9.287-6.75 12.996-18.165 9.448-29.084z"/><path d="m258.629 321.522c4.142 0 7.5-3.357 7.5-7.5v-80.543c0-4.142-3.358-7.5-7.5-7.5s-7.5 3.358-7.5 7.5v80.543c0 4.143 3.358 7.5 7.5 7.5z"/><path d="m161.614 235.939 27.556 79.385c1.319 3.714 4.843 6.198 8.78 6.198h.063c3.963-.026 7.483-2.565 8.776-6.368l26.298-79.162c1.306-3.931-.822-8.177-4.753-9.482-3.932-1.306-8.176.823-9.482 4.753l-21.02 63.274-22.047-63.517c-1.358-3.913-5.633-5.985-9.545-4.625-3.913 1.357-5.984 5.63-4.626 9.544z"/><path d="m303.422 314.022v-27.526c5.074-.027 11.516-.058 14.927-.058 16.914 0 30.674-13.561 30.674-30.229 0-16.669-13.76-30.229-30.674-30.229h-22.427c-1.993 0-3.904.793-5.312 2.205-1.402 1.406-2.188 3.311-2.187 5.295h-.001v80.543c0 4.143 3.358 7.5 7.5 7.5s7.5-3.358 7.5-7.501zm14.927-73.043c8.497 0 15.674 6.974 15.674 15.229s-7.178 15.229-15.674 15.229c-3.395 0-9.75.03-14.813.057-.027-5.211-.076-25.089-.091-30.516h14.904z"/><path d="m420.79 393.052c-6.127-2.722-10.828-7.668-13.236-13.927-2.408-6.258-2.234-13.079.488-19.207.44-.991.648-2.026.648-3.044-.001-2.873-1.662-5.614-4.457-6.855-3.785-1.682-8.217.023-9.899 3.809-2.723 6.128-7.668 10.829-13.927 13.236-6.258 2.409-13.08 2.235-19.208-.488-3.787-1.682-8.218.024-9.899 3.809-.44.99-.648 2.025-.648 3.044.001 2.873 1.662 5.613 4.457 6.855 6.128 2.723 10.829 7.668 13.237 13.927s2.234 13.08-.488 19.208c-.44.99-.648 2.025-.648 3.044.001 2.873 1.662 5.613 4.457 6.855.99.439 2.024.647 3.041.647 2.874 0 5.616-1.661 6.858-4.456 5.621-12.65 20.484-18.37 33.135-12.749 3.786 1.682 8.217-.023 9.899-3.809.44-.991.648-2.025.648-3.044-.002-2.872-1.663-5.612-4.458-6.855zm-36.585 2.081c-.443-2.13-1.063-4.238-1.86-6.309-.793-2.063-1.743-4.035-2.835-5.906 2.121-.443 4.221-1.061 6.284-1.854 2.063-.794 4.035-1.743 5.906-2.836.443 2.122 1.061 4.222 1.854 6.284.797 2.07 1.75 4.05 2.849 5.928-4.29.892-8.416 2.48-12.198 4.693z"/></g></g></svg>