<svg id="Layer_1" height="512" viewBox="0 0 256 256" width="512" xmlns="http://www.w3.org/2000/svg"><g><g><g><g><circle cx="128" cy="128" fill="#478cf7" r="78.428"/></g></g><g><path d="m178.233 67.767c11.36 13.607 18.196 31.121 18.196 50.233 0 43.315-35.113 78.428-78.428 78.428-19.111 0-36.626-6.836-50.233-18.196 14.387 17.232 36.029 28.196 60.233 28.196 43.315 0 78.428-35.114 78.428-78.428-.001-24.203-10.965-45.846-28.196-60.233z" fill="#377de2"/></g><g><path d="m180.901 70.099c12.75 13.947 20.527 32.516 20.527 52.901 0 43.315-35.113 78.428-78.428 78.428-20.385 0-38.954-7.778-52.901-20.527 14.341 15.687 34.971 25.527 57.901 25.527 43.315 0 78.428-35.114 78.428-78.428 0-22.929-9.84-43.56-25.527-57.901z" fill="#2266d3"/></g><g><path d="m128 14.336c-62.775 0-113.664 50.889-113.664 113.664s50.889 113.664 113.664 113.664 113.664-50.889 113.664-113.664-50.889-113.664-113.664-113.664zm0 192.092c-43.315 0-78.428-35.114-78.428-78.428 0-43.315 35.114-78.428 78.428-78.428s78.428 35.113 78.428 78.428-35.113 78.428-78.428 78.428z" fill="#e6e7e8"/></g><g><path d="m128 32.495c-52.746 0-95.505 42.759-95.505 95.505s42.759 95.505 95.505 95.505 95.505-42.759 95.505-95.505-42.759-95.505-95.505-95.505zm0 173.933c-43.315 0-78.428-35.114-78.428-78.428 0-43.315 35.114-78.428 78.428-78.428s78.428 35.113 78.428 78.428-35.113 78.428-78.428 78.428z" fill="#d1d3d4"/></g><g><g><g><circle cx="128" cy="32.495" fill="#939598" r="9.507"/></g><g><path d="m131.742 23.753c.492 1.148.765 2.413.765 3.741 0 5.25-4.256 9.507-9.507 9.507-1.328 0-2.593-.273-3.741-.765 1.453 3.39 4.82 5.765 8.741 5.765 5.25 0 9.507-4.256 9.507-9.507 0-3.921-2.375-7.288-5.765-8.741z" fill="#808285"/></g><g><circle cx="128" cy="223.505" fill="#939598" r="9.507"/></g><g><path d="m131.742 214.764c.492 1.148.765 2.413.765 3.741 0 5.25-4.256 9.507-9.507 9.507-1.328 0-2.593-.273-3.741-.765 1.453 3.39 4.82 5.765 8.741 5.765 5.25 0 9.507-4.256 9.507-9.507 0-3.922-2.375-7.289-5.765-8.741z" fill="#808285"/></g></g><g><g><circle cx="223.505" cy="128" fill="#939598" r="9.507"/></g><g><path d="m227.247 119.258c.492 1.148.765 2.413.765 3.742 0 5.25-4.256 9.507-9.507 9.507-1.328 0-2.593-.273-3.741-.765 1.453 3.39 4.82 5.765 8.741 5.765 5.25 0 9.507-4.256 9.507-9.507 0-3.922-2.376-7.289-5.765-8.742z" fill="#808285"/></g><g><circle cx="32.495" cy="128" fill="#939598" r="9.507"/></g><g><path d="m36.236 119.258c.492 1.148.765 2.413.765 3.742 0 5.25-4.256 9.507-9.506 9.507-1.328 0-2.593-.273-3.742-.765 1.453 3.39 4.82 5.765 8.742 5.765 5.25 0 9.506-4.256 9.506-9.507 0-3.922-2.375-7.289-5.765-8.742z" fill="#808285"/></g></g><g><g><circle cx="195.532" cy="60.468" fill="#939598" r="9.507"/></g><g><path d="m202.254 53.746c-.884-.884-1.898-1.556-2.981-2.019 1.482 3.466.81 7.635-2.019 10.464s-6.997 3.502-10.464 2.019c.463 1.083 1.136 2.097 2.019 2.981 3.713 3.713 9.732 3.713 13.444 0 3.714-3.714 3.714-9.733.001-13.445z" fill="#808285"/></g><g><circle cx="60.468" cy="195.532" fill="#939598" r="9.507"/></g><g><path d="m67.19 188.81c-.884-.884-1.898-1.556-2.981-2.019 1.482 3.466.81 7.635-2.019 10.464s-6.997 3.502-10.464 2.019c.463 1.083 1.136 2.097 2.019 2.981 3.713 3.713 9.732 3.713 13.444 0 3.713-3.713 3.713-9.732.001-13.445z" fill="#808285"/></g></g><g><g><circle cx="195.532" cy="195.532" fill="#939598" r="9.507"/></g><g><path d="m202.254 188.81c-.884-.884-1.898-1.556-2.981-2.019 1.482 3.466.81 7.635-2.019 10.464s-6.997 3.502-10.464 2.019c.463 1.083 1.136 2.097 2.019 2.981 3.713 3.713 9.732 3.713 13.444 0 3.714-3.713 3.714-9.732.001-13.445z" fill="#808285"/></g><g><circle cx="60.468" cy="60.468" fill="#939598" r="9.507"/></g><g><path d="m67.19 53.746c-.884-.884-1.898-1.556-2.981-2.019 1.482 3.466.81 7.635-2.019 10.464s-6.997 3.502-10.464 2.019c.463 1.083 1.136 2.097 2.019 2.981 3.713 3.713 9.732 3.713 13.444 0 3.713-3.714 3.713-9.733.001-13.445z" fill="#808285"/></g></g></g><g><g><path d="m56.189 120.49c-.08 0-.17 0-.26-.01-1.09-.15-1.86-1.16-1.72-2.25.149-1.08 1.149-1.86 2.24-1.72 1.09.14 1.859 1.14 1.729 2.23v.01c-.138 1-.989 1.74-1.989 1.74zm1.491-7.85c-.17 0-.33-.02-.49-.06-1.069-.26-1.72-1.35-1.46-2.42 1.98-8.01 5.261-15.59 9.771-22.54 4.42-6.83 9.899-12.86 16.28-17.93 6.449-5.11 13.619-9.1 21.329-11.84 7.98-2.84 16.351-4.28 24.891-4.28 9.819 0 19.359 1.89 28.38 5.62 8.7 3.61 16.56 8.77 23.36 15.36.79.76.81 2.03.05 2.82-.75.77-2.061.79-2.83.05-13.22-12.8-30.61-19.85-48.96-19.85h-.01c-32.471 0-60.591 22.02-68.37 53.55-.222.89-1.021 1.52-1.941 1.52z" fill="#5e9cf7"/></g></g></g><g><g><g><g><g><g><g><g><g><path d="m109.715 120.185h-22.285v-5.331c0-6.869 5.569-12.438 12.438-12.438h4.692c2.847 0 5.155 2.308 5.155 5.155z" fill="#fff"/></g></g></g></g><g><g><g><g><path d="m146.285 120.185h22.285v-5.331c0-6.869-5.569-12.438-12.438-12.438h-4.692c-2.847 0-5.155 2.308-5.155 5.155z" fill="#fff"/></g></g></g></g></g><g><g><g><g><path d="m158.234 161.227-24.707-12.139c-3.57-1.754-7.486-1.754-11.055 0l-24.707 12.139c-10.507 5.162-21.633-5.297-21.633-20.337 0-18.425 11.109-33.361 24.813-33.361h54.108c13.704 0 24.813 14.936 24.813 33.361.001 15.04-11.124 25.499-21.632 20.337z" fill="#ffa91a"/></g></g></g></g><g><g><g><g><path d="m158.234 156.614-24.707-12.139c-3.57-1.754-7.486-1.754-11.055 0l-24.707 12.139c-10.018 4.922-20.598-4.357-21.561-18.268-.047.84-.071 1.688-.071 2.544 0 15.041 11.125 25.5 21.633 20.337l24.707-12.139c3.57-1.754 7.485-1.754 11.055 0l24.707 12.139c10.507 5.162 21.633-5.297 21.633-20.337 0-.856-.024-1.704-.071-2.544-.964 13.911-11.544 23.19-21.563 18.268z" fill="#f79219"/></g></g></g></g><g><g><g><g><g><g><path d="m171.342 134.785c-1.672 1.672-4.384 1.672-6.056 0s-1.672-4.384 0-6.056 4.384-1.672 6.056 0 1.672 4.384 0 6.056z" fill="#fff"/></g></g></g></g><g><g><g><g><circle cx="160.024" cy="123.467" fill="#fff" r="4.282"/></g></g></g></g><g><g><g><g><circle cx="160.17" cy="139.901" fill="#fff" r="4.282"/></g></g></g></g><g><g><g><g><circle cx="151.88" cy="131.611" fill="#fff" r="4.282"/></g></g></g></g></g></g><g><g><g><g><g><path d="m103.34 122.888c.422-.422.385-1.121-.08-1.494-1.724-1.382-3.913-2.209-6.295-2.209-2.38 0-4.568.826-6.291 2.206-.466.373-.503 1.072-.081 1.495l5.668 5.668c.39.39 1.023.39 1.413 0z" fill="#fff"/></g></g></g></g><g><g><g><g><path d="m109.453 131.673c0-2.378-.824-4.563-2.202-6.286-.373-.466-1.073-.503-1.495-.081l-5.665 5.665c-.39.39-.39 1.023 0 1.413l5.661 5.661c.422.422 1.121.385 1.495-.081 1.38-1.724 2.206-3.911 2.206-6.291z" fill="#fff"/></g></g></g></g><g><g><g><g><path d="m88.176 125.303c-.422-.422-1.122-.385-1.495.081-1.38 1.723-2.204 3.91-2.204 6.289 0 2.382.827 4.571 2.209 6.295.373.466 1.072.502 1.494.08l5.664-5.664c.39-.39.39-1.023 0-1.413z" fill="#fff"/></g></g></g></g><g><g><g><g><path d="m90.598 140.464c-.422.422-.385 1.122.081 1.495 1.723 1.378 3.908 2.202 6.285 2.202 2.379 0 4.566-.825 6.289-2.205.466-.373.503-1.073.081-1.495l-5.66-5.66c-.39-.39-1.023-.39-1.413 0z" fill="#fff"/></g></g></g></g></g><g><g><g><g><path d="m138.017 102.416h-20.034c-2.701 0-4.89 2.189-4.89 4.89v.222h29.814v-.222c0-2.7-2.19-4.89-4.89-4.89z" fill="#fff"/></g></g></g></g><g><g><g><g><path d="m141.056 129.657h-26.112c-1.022 0-1.851-.829-1.851-1.851v-15.813c0-1.022.829-1.851 1.851-1.851h26.112c1.022 0 1.851.829 1.851 1.851v15.813c0 1.022-.829 1.851-1.851 1.851z" fill="#f79219"/></g></g></g></g></g></g></g><g><g><circle cx="128" cy="174.488" fill="#ffa91a" r="17.782"/></g><g><path d="m122.354 182.446v-15.914c0-.73.592-1.322 1.322-1.322.277 0 .548.087.773.249l11.038 7.957c.592.425.728 1.25.303 1.843-.001.001-.002.003-.003.004-.083.116-.184.217-.3.3l-11.038 7.954c-.592.427-1.418.293-1.845-.3-.162-.224-.249-.494-.25-.771z" fill="#fff"/></g></g><g><g><path d="m140.074 63.778-20.347 5.928c-.522.152-.881.631-.88 1.175v14.833c-3.143-1.706-7.075-.541-8.781 2.603-1.706 3.143-.541 7.075 2.603 8.781 3.143 1.706 7.075.541 8.781-2.603.515-.948.784-2.009.784-3.088v-16.664c0-.272.179-.511.44-.587l14.796-4.311c.324-.094.664.092.758.416.016.055.024.113.024.171v10.076c-3.143-1.706-7.075-.541-8.781 2.603-1.706 3.143-.541 7.075 2.603 8.781 3.143 1.706 7.075.541 8.781-2.603.515-.948.784-2.009.784-3.088v-21.249c0-.675-.547-1.222-1.222-1.223-.116.001-.232.017-.343.049z" fill="#ffa91a"/></g></g></g></g></svg>